<mxfile host="app.diagrams.net" modified="2024-01-24T00:40:14.069Z" agent="Mozilla/5.0 (Windows NT 10.0; Win64; x64) AppleWebKit/537.36 (KHTML, like Gecko) Chrome/120.0.0.0 Safari/537.36" etag="GfMBZSYdSnVy795KUe2A" version="23.0.0" type="github" pages="4">
  <diagram id="R2lEEEUBdFMjLlhIrx00" name="Bikes">
    <mxGraphModel dx="2074" dy="1144" grid="1" gridSize="10" guides="1" tooltips="1" connect="1" arrows="1" fold="1" page="1" pageScale="1" pageWidth="1100" pageHeight="850" math="0" shadow="0" extFonts="Permanent Marker^https://fonts.googleapis.com/css?family=Permanent+Marker">
      <root>
        <mxCell id="0" />
        <mxCell id="1" parent="0" />
        <mxCell id="VV_m7M94F2-GDkZLRUmD-1" value="" style="group" vertex="1" connectable="0" parent="1">
          <mxGeometry x="10" y="150" width="1090" height="507.5" as="geometry" />
        </mxCell>
        <mxCell id="4O4JVGUMtCNLN3ScFyq3-8" value="&lt;font style=&quot;font-size: 13px;&quot;&gt;Bike&lt;/font&gt;" style="rounded=0;whiteSpace=wrap;html=1;" parent="VV_m7M94F2-GDkZLRUmD-1" vertex="1">
          <mxGeometry x="572.75" y="166.59" width="57.37" height="32.35" as="geometry" />
        </mxCell>
        <mxCell id="4O4JVGUMtCNLN3ScFyq3-9" value="&lt;font style=&quot;font-size: 9px;&quot;&gt;QR Code&lt;/font&gt;" style="ellipse;whiteSpace=wrap;html=1;" parent="VV_m7M94F2-GDkZLRUmD-1" vertex="1">
          <mxGeometry x="483.53" y="108.03999999999999" width="46.77" height="35.56" as="geometry" />
        </mxCell>
        <mxCell id="4O4JVGUMtCNLN3ScFyq3-11" value="" style="endArrow=none;html=1;rounded=0;exitX=1;exitY=1;exitDx=0;exitDy=0;entryX=0.025;entryY=0.117;entryDx=0;entryDy=0;entryPerimeter=0;" parent="VV_m7M94F2-GDkZLRUmD-1" source="4O4JVGUMtCNLN3ScFyq3-9" target="4O4JVGUMtCNLN3ScFyq3-8" edge="1">
          <mxGeometry width="50" height="50" relative="1" as="geometry">
            <mxPoint x="594.9700598802397" y="254.56591639871382" as="sourcePoint" />
            <mxPoint x="627.3053892215569" y="221.92926045016077" as="targetPoint" />
          </mxGeometry>
        </mxCell>
        <mxCell id="4O4JVGUMtCNLN3ScFyq3-12" value="&lt;u style=&quot;&quot;&gt;&lt;font style=&quot;font-size: 12px;&quot;&gt;BikeID&lt;/font&gt;&lt;/u&gt;" style="ellipse;whiteSpace=wrap;html=1;" parent="VV_m7M94F2-GDkZLRUmD-1" vertex="1">
          <mxGeometry x="698.4431137724551" y="110.96463022508038" width="64.67065868263474" height="39.16398713826367" as="geometry" />
        </mxCell>
        <mxCell id="4O4JVGUMtCNLN3ScFyq3-14" value="" style="endArrow=none;html=1;rounded=0;exitX=1;exitY=0;exitDx=0;exitDy=0;entryX=0;entryY=1;entryDx=0;entryDy=0;" parent="VV_m7M94F2-GDkZLRUmD-1" source="4O4JVGUMtCNLN3ScFyq3-8" target="4O4JVGUMtCNLN3ScFyq3-12" edge="1">
          <mxGeometry width="50" height="50" relative="1" as="geometry">
            <mxPoint x="679.0419161676648" y="221.92926045016077" as="sourcePoint" />
            <mxPoint x="703.616766467066" y="251.9549839228296" as="targetPoint" />
          </mxGeometry>
        </mxCell>
        <mxCell id="4O4JVGUMtCNLN3ScFyq3-16" value="&lt;font style=&quot;font-size: 9px;&quot;&gt;IsInRepairShop&lt;/font&gt;" style="ellipse;whiteSpace=wrap;html=1;" parent="VV_m7M94F2-GDkZLRUmD-1" vertex="1">
          <mxGeometry x="530.2994011976049" y="81.59163987138264" width="71.13772455089821" height="39.16398713826367" as="geometry" />
        </mxCell>
        <mxCell id="4O4JVGUMtCNLN3ScFyq3-18" value="" style="endArrow=none;html=1;rounded=0;entryX=0.25;entryY=0;entryDx=0;entryDy=0;exitX=0.5;exitY=1;exitDx=0;exitDy=0;" parent="VV_m7M94F2-GDkZLRUmD-1" source="4O4JVGUMtCNLN3ScFyq3-16" target="4O4JVGUMtCNLN3ScFyq3-8" edge="1">
          <mxGeometry width="50" height="50" relative="1" as="geometry">
            <mxPoint x="620.8383233532935" y="300.25723472668807" as="sourcePoint" />
            <mxPoint x="653.173652694611" y="267.62057877813504" as="targetPoint" />
          </mxGeometry>
        </mxCell>
        <mxCell id="4O4JVGUMtCNLN3ScFyq3-20" value="" style="endArrow=none;html=1;rounded=0;entryX=0.75;entryY=0;entryDx=0;entryDy=0;exitX=0.5;exitY=1;exitDx=0;exitDy=0;" parent="VV_m7M94F2-GDkZLRUmD-1" target="4O4JVGUMtCNLN3ScFyq3-8" edge="1" source="4O4JVGUMtCNLN3ScFyq3-21">
          <mxGeometry width="50" height="50" relative="1" as="geometry">
            <mxPoint x="640.239520958084" y="124.01929260450162" as="sourcePoint" />
            <mxPoint x="643.4730538922157" y="169.71061093247587" as="targetPoint" />
          </mxGeometry>
        </mxCell>
        <mxCell id="4O4JVGUMtCNLN3ScFyq3-21" value="&lt;font style=&quot;font-size: 10px;&quot;&gt;Year Built&lt;/font&gt;" style="ellipse;whiteSpace=wrap;html=1;" parent="VV_m7M94F2-GDkZLRUmD-1" vertex="1">
          <mxGeometry x="607.54" y="89.16" width="62.46" height="30.84" as="geometry" />
        </mxCell>
        <mxCell id="4O4JVGUMtCNLN3ScFyq3-22" value="" style="triangle;whiteSpace=wrap;html=1;rotation=-90;direction=east;flipH=0;flipV=0;" parent="VV_m7M94F2-GDkZLRUmD-1" vertex="1">
          <mxGeometry x="582.0359281437127" y="215.40192926045017" width="38.802395209580844" height="52.21864951768489" as="geometry" />
        </mxCell>
        <mxCell id="4O4JVGUMtCNLN3ScFyq3-23" value="" style="endArrow=none;html=1;rounded=0;entryX=0.5;entryY=1;entryDx=0;entryDy=0;exitX=1;exitY=0.5;exitDx=0;exitDy=0;" parent="VV_m7M94F2-GDkZLRUmD-1" source="4O4JVGUMtCNLN3ScFyq3-22" target="4O4JVGUMtCNLN3ScFyq3-8" edge="1">
          <mxGeometry width="50" height="50" relative="1" as="geometry">
            <mxPoint x="620.8383233532935" y="300.25723472668807" as="sourcePoint" />
            <mxPoint x="653.173652694611" y="267.62057877813504" as="targetPoint" />
          </mxGeometry>
        </mxCell>
        <mxCell id="4O4JVGUMtCNLN3ScFyq3-24" value="&lt;font style=&quot;font-size: 10px;&quot;&gt;Regular Bike&lt;/font&gt;" style="rounded=0;whiteSpace=wrap;html=1;" parent="VV_m7M94F2-GDkZLRUmD-1" vertex="1">
          <mxGeometry x="504.4311377245509" y="280.0225080385852" width="62.08383233532935" height="31.983922829581996" as="geometry" />
        </mxCell>
        <mxCell id="4O4JVGUMtCNLN3ScFyq3-25" value="&lt;font style=&quot;font-size: 10px;&quot;&gt;Electric Bike&lt;/font&gt;" style="whiteSpace=wrap;html=1;" parent="VV_m7M94F2-GDkZLRUmD-1" vertex="1">
          <mxGeometry x="646.7065868263475" y="280.67524115755623" width="62.08383233532935" height="31.331189710610932" as="geometry" />
        </mxCell>
        <mxCell id="4O4JVGUMtCNLN3ScFyq3-26" value="" style="endArrow=none;html=1;rounded=0;entryX=-0.017;entryY=0;entryDx=0;entryDy=0;entryPerimeter=0;exitX=0.5;exitY=0;exitDx=0;exitDy=0;" parent="VV_m7M94F2-GDkZLRUmD-1" source="4O4JVGUMtCNLN3ScFyq3-24" target="4O4JVGUMtCNLN3ScFyq3-22" edge="1">
          <mxGeometry width="50" height="50" relative="1" as="geometry">
            <mxPoint x="620.8383233532935" y="300.25723472668807" as="sourcePoint" />
            <mxPoint x="653.173652694611" y="267.62057877813504" as="targetPoint" />
          </mxGeometry>
        </mxCell>
        <mxCell id="4O4JVGUMtCNLN3ScFyq3-27" value="" style="endArrow=none;html=1;rounded=0;entryX=0;entryY=0.925;entryDx=0;entryDy=0;entryPerimeter=0;exitX=0.5;exitY=0;exitDx=0;exitDy=0;" parent="VV_m7M94F2-GDkZLRUmD-1" source="4O4JVGUMtCNLN3ScFyq3-25" target="4O4JVGUMtCNLN3ScFyq3-22" edge="1">
          <mxGeometry width="50" height="50" relative="1" as="geometry">
            <mxPoint x="620.8383233532935" y="300.25723472668807" as="sourcePoint" />
            <mxPoint x="653.173652694611" y="267.62057877813504" as="targetPoint" />
          </mxGeometry>
        </mxCell>
        <mxCell id="4O4JVGUMtCNLN3ScFyq3-31" value="" style="endArrow=none;html=1;rounded=0;exitX=0;exitY=1;exitDx=0;exitDy=0;" parent="VV_m7M94F2-GDkZLRUmD-1" source="4O4JVGUMtCNLN3ScFyq3-30" edge="1">
          <mxGeometry width="50" height="50" relative="1" as="geometry">
            <mxPoint x="620.8383233532935" y="300.25723472668807" as="sourcePoint" />
            <mxPoint x="614.37125748503" y="345.9485530546624" as="targetPoint" />
          </mxGeometry>
        </mxCell>
        <mxCell id="4O4JVGUMtCNLN3ScFyq3-32" value="&lt;font style=&quot;font-size: 9px;&quot;&gt;ElectricFee&lt;/font&gt;" style="ellipse;whiteSpace=wrap;html=1;" parent="VV_m7M94F2-GDkZLRUmD-1" vertex="1">
          <mxGeometry x="691.9760479041917" y="324.73472668810285" width="54.323353293413184" height="32.636655948553056" as="geometry" />
        </mxCell>
        <mxCell id="4O4JVGUMtCNLN3ScFyq3-33" value="" style="endArrow=none;html=1;rounded=0;exitX=1;exitY=1;exitDx=0;exitDy=0;entryX=0.5;entryY=0;entryDx=0;entryDy=0;" parent="VV_m7M94F2-GDkZLRUmD-1" source="4O4JVGUMtCNLN3ScFyq3-25" target="4O4JVGUMtCNLN3ScFyq3-32" edge="1">
          <mxGeometry width="50" height="50" relative="1" as="geometry">
            <mxPoint x="708.7904191616767" y="295.6881028938907" as="sourcePoint" />
            <mxPoint x="724.3113772455091" y="332.89389067524115" as="targetPoint" />
          </mxGeometry>
        </mxCell>
        <mxCell id="4O4JVGUMtCNLN3ScFyq3-34" value="&lt;font style=&quot;font-size: 9px;&quot;&gt;RegularFee&lt;/font&gt;" style="ellipse;whiteSpace=wrap;html=1;flipH=0;" parent="VV_m7M94F2-GDkZLRUmD-1" vertex="1">
          <mxGeometry x="504.4311377245509" y="349.21221864951764" width="54.323353293413184" height="32.636655948553056" as="geometry" />
        </mxCell>
        <mxCell id="4O4JVGUMtCNLN3ScFyq3-36" value="" style="endArrow=none;html=1;rounded=0;entryX=0.5;entryY=1;entryDx=0;entryDy=0;exitX=0.5;exitY=0;exitDx=0;exitDy=0;" parent="VV_m7M94F2-GDkZLRUmD-1" source="4O4JVGUMtCNLN3ScFyq3-34" target="4O4JVGUMtCNLN3ScFyq3-24" edge="1">
          <mxGeometry width="50" height="50" relative="1" as="geometry">
            <mxPoint x="455.28143712574854" y="296.3408360128617" as="sourcePoint" />
            <mxPoint x="496.6706586826348" y="296.3408360128617" as="targetPoint" />
          </mxGeometry>
        </mxCell>
        <mxCell id="rIilhEU5xWA09Vjhrhn--2" value="&lt;font style=&quot;font-size: 15px;&quot;&gt;Station&lt;/font&gt;" style="rounded=0;whiteSpace=wrap;html=1;" parent="VV_m7M94F2-GDkZLRUmD-1" vertex="1">
          <mxGeometry x="924.7904191616767" y="417.7491961414791" width="77.60479041916169" height="39.16398713826367" as="geometry" />
        </mxCell>
        <mxCell id="rIilhEU5xWA09Vjhrhn--4" value="&lt;u&gt;&lt;font style=&quot;font-size: 9px;&quot;&gt;stationname&lt;/font&gt;&lt;/u&gt;" style="ellipse;whiteSpace=wrap;html=1;" parent="VV_m7M94F2-GDkZLRUmD-1" vertex="1">
          <mxGeometry x="1002.3952095808384" y="365.5305466237942" width="58.20359281437126" height="32.636655948553056" as="geometry" />
        </mxCell>
        <mxCell id="rIilhEU5xWA09Vjhrhn--5" value="" style="endArrow=none;html=1;rounded=0;exitX=0;exitY=0.5;exitDx=0;exitDy=0;entryX=1;entryY=0.5;entryDx=0;entryDy=0;" parent="VV_m7M94F2-GDkZLRUmD-1" source="rIilhEU5xWA09Vjhrhn--6" target="rIilhEU5xWA09Vjhrhn--2" edge="1">
          <mxGeometry width="50" height="50" relative="1" as="geometry">
            <mxPoint x="1083.233532934132" y="352.475884244373" as="sourcePoint" />
            <mxPoint x="966.8263473053894" y="442.2266881028939" as="targetPoint" />
          </mxGeometry>
        </mxCell>
        <mxCell id="rIilhEU5xWA09Vjhrhn--6" value="&lt;font style=&quot;font-size: 9px;&quot;&gt;longitudeCoord&lt;/font&gt;" style="ellipse;whiteSpace=wrap;html=1;" parent="VV_m7M94F2-GDkZLRUmD-1" vertex="1">
          <mxGeometry x="1021.8" y="421.01" width="68.2" height="32.64" as="geometry" />
        </mxCell>
        <mxCell id="rIilhEU5xWA09Vjhrhn--7" value="" style="endArrow=none;html=1;rounded=0;exitX=0;exitY=0;exitDx=0;exitDy=0;entryX=1;entryY=1;entryDx=0;entryDy=0;" parent="VV_m7M94F2-GDkZLRUmD-1" source="rIilhEU5xWA09Vjhrhn--8" target="rIilhEU5xWA09Vjhrhn--2" edge="1">
          <mxGeometry width="50" height="50" relative="1" as="geometry">
            <mxPoint x="1031.4970059880243" y="359.0032154340836" as="sourcePoint" />
            <mxPoint x="1002.3952095808384" y="448.7540192926045" as="targetPoint" />
          </mxGeometry>
        </mxCell>
        <mxCell id="rIilhEU5xWA09Vjhrhn--8" value="&lt;font style=&quot;font-size: 9px;&quot;&gt;latitudeCoord&lt;/font&gt;" style="ellipse;whiteSpace=wrap;html=1;" parent="VV_m7M94F2-GDkZLRUmD-1" vertex="1">
          <mxGeometry x="1008.8622754491018" y="474.863344051447" width="58.20359281437126" height="32.636655948553056" as="geometry" />
        </mxCell>
        <mxCell id="rIilhEU5xWA09Vjhrhn--10" value="" style="endArrow=none;html=1;rounded=0;exitX=0.5;exitY=0;exitDx=0;exitDy=0;entryX=0.5;entryY=1;entryDx=0;entryDy=0;" parent="VV_m7M94F2-GDkZLRUmD-1" edge="1">
          <mxGeometry width="50" height="50" relative="1" as="geometry">
            <mxPoint x="843.9520958083833" y="248.03858520900323" as="sourcePoint" />
            <mxPoint x="843.9520958083833" y="202.34726688102893" as="targetPoint" />
          </mxGeometry>
        </mxCell>
        <mxCell id="rIilhEU5xWA09Vjhrhn--12" value="" style="endArrow=none;html=1;rounded=0;entryX=0.5;entryY=0;entryDx=0;entryDy=0;exitX=0.5;exitY=1;exitDx=0;exitDy=0;" parent="VV_m7M94F2-GDkZLRUmD-1" source="rIilhEU5xWA09Vjhrhn--13" edge="1">
          <mxGeometry width="50" height="50" relative="1" as="geometry">
            <mxPoint x="892.4550898203594" y="117.49196141479099" as="sourcePoint" />
            <mxPoint x="843.9520958083833" y="163.18327974276528" as="targetPoint" />
          </mxGeometry>
        </mxCell>
        <mxCell id="rIilhEU5xWA09Vjhrhn--13" value="isDefect" style="ellipse;whiteSpace=wrap;html=1;" parent="VV_m7M94F2-GDkZLRUmD-1" vertex="1">
          <mxGeometry x="814.8502994011977" y="84.85530546623794" width="58.20359281437126" height="32.636655948553056" as="geometry" />
        </mxCell>
        <mxCell id="rIilhEU5xWA09Vjhrhn--14" value="" style="endArrow=classic;html=1;rounded=0;exitX=1;exitY=0.5;exitDx=0;exitDy=0;" parent="VV_m7M94F2-GDkZLRUmD-1" edge="1">
          <mxGeometry width="50" height="50" relative="1" as="geometry">
            <mxPoint x="885.9880239520959" y="182.7652733118971" as="sourcePoint" />
            <mxPoint x="924.7904191616767" y="182.7652733118971" as="targetPoint" />
          </mxGeometry>
        </mxCell>
        <mxCell id="rIilhEU5xWA09Vjhrhn--16" value="" style="endArrow=none;html=1;rounded=0;exitX=0.5;exitY=1;exitDx=0;exitDy=0;entryX=0.5;entryY=0;entryDx=0;entryDy=0;" parent="VV_m7M94F2-GDkZLRUmD-1" source="rIilhEU5xWA09Vjhrhn--24" target="rIilhEU5xWA09Vjhrhn--2" edge="1">
          <mxGeometry width="50" height="50" relative="1" as="geometry">
            <mxPoint x="995.928143712575" y="182.7652733118971" as="sourcePoint" />
            <mxPoint x="1008.8622754491018" y="221.92926045016077" as="targetPoint" />
          </mxGeometry>
        </mxCell>
        <mxCell id="rIilhEU5xWA09Vjhrhn--18" value="Locks" style="rhombus;whiteSpace=wrap;html=1;" parent="VV_m7M94F2-GDkZLRUmD-1" vertex="1">
          <mxGeometry x="695.2095808383234" y="156.65594855305469" width="71.13772455089821" height="52.21864951768489" as="geometry" />
        </mxCell>
        <mxCell id="rIilhEU5xWA09Vjhrhn--19" value="" style="endArrow=none;html=1;rounded=0;exitX=1;exitY=0.5;exitDx=0;exitDy=0;entryX=0;entryY=0.5;entryDx=0;entryDy=0;" parent="VV_m7M94F2-GDkZLRUmD-1" source="rIilhEU5xWA09Vjhrhn--18" edge="1">
          <mxGeometry width="50" height="50" relative="1" as="geometry">
            <mxPoint x="847.1856287425151" y="313.31189710610937" as="sourcePoint" />
            <mxPoint x="801.9161676646708" y="182.7652733118971" as="targetPoint" />
          </mxGeometry>
        </mxCell>
        <mxCell id="rIilhEU5xWA09Vjhrhn--20" value="" style="endArrow=none;html=1;rounded=0;exitX=0;exitY=0;exitDx=0;exitDy=0;entryX=1;entryY=1;entryDx=0;entryDy=0;" parent="VV_m7M94F2-GDkZLRUmD-1" source="rIilhEU5xWA09Vjhrhn--21" target="4O4JVGUMtCNLN3ScFyq3-8" edge="1">
          <mxGeometry width="50" height="50" relative="1" as="geometry">
            <mxPoint x="485.02994011976057" y="192.556270096463" as="sourcePoint" />
            <mxPoint x="562.6347305389222" y="192.556270096463" as="targetPoint" />
          </mxGeometry>
        </mxCell>
        <mxCell id="rIilhEU5xWA09Vjhrhn--21" value="&lt;font style=&quot;font-size: 12px;&quot;&gt;isLocked&lt;/font&gt;" style="ellipse;whiteSpace=wrap;html=1;" parent="VV_m7M94F2-GDkZLRUmD-1" vertex="1">
          <mxGeometry x="638.9461077844312" y="215.40192926045017" width="64.67065868263474" height="32.636655948553056" as="geometry" />
        </mxCell>
        <mxCell id="rIilhEU5xWA09Vjhrhn--23" value="&lt;font style=&quot;font-size: 14px;&quot;&gt;Dock&lt;/font&gt;" style="shape=ext;margin=3;double=1;whiteSpace=wrap;html=1;align=center;" parent="VV_m7M94F2-GDkZLRUmD-1" vertex="1">
          <mxGeometry x="805.1497005988025" y="163.18327974276528" width="77.60479041916169" height="39.16398713826367" as="geometry" />
        </mxCell>
        <mxCell id="rIilhEU5xWA09Vjhrhn--24" value="&lt;font style=&quot;font-size: 9px;&quot;&gt;Belongs&lt;/font&gt;" style="shape=rhombus;double=1;perimeter=rhombusPerimeter;whiteSpace=wrap;html=1;align=center;" parent="VV_m7M94F2-GDkZLRUmD-1" vertex="1">
          <mxGeometry x="924.7904191616767" y="163.18327974276528" width="77.60479041916169" height="39.16398713826367" as="geometry" />
        </mxCell>
        <mxCell id="rIilhEU5xWA09Vjhrhn--31" value="&lt;span style=&quot;border-bottom: 1px dotted&quot;&gt;Number&lt;/span&gt;" style="ellipse;whiteSpace=wrap;html=1;align=center;" parent="VV_m7M94F2-GDkZLRUmD-1" vertex="1">
          <mxGeometry x="811.616766467066" y="248.03858520900323" width="64.67065868263474" height="26.109324758842444" as="geometry" />
        </mxCell>
        <mxCell id="ZPwJOs-ACYiF7Zmo24iJ-6" value="&lt;font style=&quot;font-size: 12px;&quot;&gt;Registered&lt;/font&gt;" style="rounded=0;whiteSpace=wrap;html=1;fontSize=16;" parent="VV_m7M94F2-GDkZLRUmD-1" vertex="1">
          <mxGeometry x="71.13772455089821" y="62.00964630225081" width="64.67065868263474" height="32.636655948553056" as="geometry" />
        </mxCell>
        <mxCell id="ZPwJOs-ACYiF7Zmo24iJ-9" value="" style="triangle;whiteSpace=wrap;html=1;direction=north;" parent="VV_m7M94F2-GDkZLRUmD-1" vertex="1">
          <mxGeometry x="80.83832335329343" y="143.60128617363344" width="45.26946107784432" height="26.109324758842444" as="geometry" />
        </mxCell>
        <mxCell id="ZPwJOs-ACYiF7Zmo24iJ-10" value="" style="endArrow=none;html=1;rounded=0;exitX=1;exitY=0.5;exitDx=0;exitDy=0;entryX=0.5;entryY=1;entryDx=0;entryDy=0;" parent="VV_m7M94F2-GDkZLRUmD-1" source="ZPwJOs-ACYiF7Zmo24iJ-9" target="ZPwJOs-ACYiF7Zmo24iJ-6" edge="1">
          <mxGeometry width="50" height="50" relative="1" as="geometry">
            <mxPoint x="116.40718562874252" y="261.09324758842445" as="sourcePoint" />
            <mxPoint x="122.874251497006" y="104.43729903536978" as="targetPoint" />
          </mxGeometry>
        </mxCell>
        <mxCell id="ZPwJOs-ACYiF7Zmo24iJ-11" value="" style="endArrow=none;html=1;rounded=0;entryX=0;entryY=0.5;entryDx=0;entryDy=0;exitX=0.5;exitY=0;exitDx=0;exitDy=0;" parent="VV_m7M94F2-GDkZLRUmD-1" source="ZPwJOs-ACYiF7Zmo24iJ-12" target="ZPwJOs-ACYiF7Zmo24iJ-9" edge="1">
          <mxGeometry width="50" height="50" relative="1" as="geometry">
            <mxPoint x="122.874251497006" y="156.65594855305469" as="sourcePoint" />
            <mxPoint x="187.54491017964074" y="117.49196141479099" as="targetPoint" />
          </mxGeometry>
        </mxCell>
        <mxCell id="ZPwJOs-ACYiF7Zmo24iJ-12" value="&lt;font style=&quot;font-size: 9px;&quot;&gt;Member&lt;/font&gt;" style="rounded=0;whiteSpace=wrap;html=1;fontSize=16;" parent="VV_m7M94F2-GDkZLRUmD-1" vertex="1">
          <mxGeometry x="74.37125748502996" y="192.556270096463" width="58.20359281437126" height="26.109324758842444" as="geometry" />
        </mxCell>
        <mxCell id="ZPwJOs-ACYiF7Zmo24iJ-13" value="" style="endArrow=none;html=1;rounded=0;entryX=0;entryY=0.5;entryDx=0;entryDy=0;" parent="VV_m7M94F2-GDkZLRUmD-1" source="ZPwJOs-ACYiF7Zmo24iJ-14" target="ZPwJOs-ACYiF7Zmo24iJ-12" edge="1">
          <mxGeometry width="50" height="50" relative="1" as="geometry">
            <mxPoint x="64.67065868263474" y="195.81993569131834" as="sourcePoint" />
            <mxPoint x="122.874251497006" y="228.4565916398714" as="targetPoint" />
          </mxGeometry>
        </mxCell>
        <mxCell id="ZPwJOs-ACYiF7Zmo24iJ-14" value="&lt;font style=&quot;font-size: 9px;&quot;&gt;ExpiryDate&lt;/font&gt;" style="ellipse;whiteSpace=wrap;html=1;align=center;" parent="VV_m7M94F2-GDkZLRUmD-1" vertex="1">
          <mxGeometry y="194.18810289389066" width="58.20359281437126" height="22.845659163987136" as="geometry" />
        </mxCell>
        <mxCell id="ZPwJOs-ACYiF7Zmo24iJ-15" value="Id" style="ellipse;whiteSpace=wrap;html=1;align=center;fontStyle=4" parent="VV_m7M94F2-GDkZLRUmD-1" vertex="1">
          <mxGeometry x="168.14371257485033" width="38.802395209580844" height="26.109324758842444" as="geometry" />
        </mxCell>
        <mxCell id="ZPwJOs-ACYiF7Zmo24iJ-16" value="" style="endArrow=none;html=1;rounded=0;exitX=1;exitY=0;exitDx=0;exitDy=0;entryX=0;entryY=1;entryDx=0;entryDy=0;" parent="VV_m7M94F2-GDkZLRUmD-1" source="ZPwJOs-ACYiF7Zmo24iJ-6" target="ZPwJOs-ACYiF7Zmo24iJ-15" edge="1">
          <mxGeometry width="50" height="50" relative="1" as="geometry">
            <mxPoint x="206.946107784431" y="-32.636655948553056" as="sourcePoint" />
            <mxPoint x="139.04191616766468" y="-13.054662379421222" as="targetPoint" />
          </mxGeometry>
        </mxCell>
        <mxCell id="ZPwJOs-ACYiF7Zmo24iJ-17" value="" style="endArrow=none;html=1;rounded=0;exitX=1;exitY=0.5;exitDx=0;exitDy=0;" parent="VV_m7M94F2-GDkZLRUmD-1" source="ZPwJOs-ACYiF7Zmo24iJ-6" target="ZPwJOs-ACYiF7Zmo24iJ-18" edge="1">
          <mxGeometry width="50" height="50" relative="1" as="geometry">
            <mxPoint x="187.5449101796406" y="78.32797427652734" as="sourcePoint" />
            <mxPoint x="219.88023952095813" y="78.32797427652734" as="targetPoint" />
          </mxGeometry>
        </mxCell>
        <mxCell id="ZPwJOs-ACYiF7Zmo24iJ-18" value="&lt;font style=&quot;font-size: 9px;&quot;&gt;PaysWith&lt;/font&gt;" style="shape=rhombus;perimeter=rhombusPerimeter;whiteSpace=wrap;html=1;align=center;" parent="VV_m7M94F2-GDkZLRUmD-1" vertex="1">
          <mxGeometry x="206.94610778443115" y="58.745980707395496" width="51.73652694610779" height="39.16398713826367" as="geometry" />
        </mxCell>
        <mxCell id="ZPwJOs-ACYiF7Zmo24iJ-21" value="Credit Card" style="whiteSpace=wrap;html=1;align=center;" parent="VV_m7M94F2-GDkZLRUmD-1" vertex="1">
          <mxGeometry x="287.7844311377246" y="65.27331189710611" width="64.67065868263474" height="26.109324758842444" as="geometry" />
        </mxCell>
        <mxCell id="ZPwJOs-ACYiF7Zmo24iJ-22" value="" style="endArrow=none;html=1;rounded=0;exitX=0.5;exitY=0;exitDx=0;exitDy=0;" parent="VV_m7M94F2-GDkZLRUmD-1" source="ZPwJOs-ACYiF7Zmo24iJ-21" target="ZPwJOs-ACYiF7Zmo24iJ-23" edge="1">
          <mxGeometry width="50" height="50" relative="1" as="geometry">
            <mxPoint x="320.119760479042" y="52.21864951768489" as="sourcePoint" />
            <mxPoint x="320.119760479042" y="26.109324758842444" as="targetPoint" />
          </mxGeometry>
        </mxCell>
        <mxCell id="ZPwJOs-ACYiF7Zmo24iJ-23" value="&lt;font style=&quot;font-size: 9px;&quot;&gt;Expiry Date&lt;/font&gt;" style="ellipse;whiteSpace=wrap;html=1;align=center;" parent="VV_m7M94F2-GDkZLRUmD-1" vertex="1">
          <mxGeometry x="287.7844311377246" y="13.054662379421222" width="64.67065868263474" height="26.109324758842444" as="geometry" />
        </mxCell>
        <mxCell id="ZPwJOs-ACYiF7Zmo24iJ-24" value="" style="endArrow=none;html=1;rounded=0;" parent="VV_m7M94F2-GDkZLRUmD-1" source="ZPwJOs-ACYiF7Zmo24iJ-21" edge="1">
          <mxGeometry relative="1" as="geometry">
            <mxPoint x="352.4550898203593" y="78.0016077170418" as="sourcePoint" />
            <mxPoint x="384.79041916167665" y="78.32797427652734" as="targetPoint" />
          </mxGeometry>
        </mxCell>
        <mxCell id="ZPwJOs-ACYiF7Zmo24iJ-25" value="Number" style="ellipse;whiteSpace=wrap;html=1;align=center;fontStyle=4;" parent="VV_m7M94F2-GDkZLRUmD-1" vertex="1">
          <mxGeometry x="378.3233532934132" y="65.27331189710611" width="64.67065868263474" height="26.109324758842444" as="geometry" />
        </mxCell>
        <mxCell id="ZPwJOs-ACYiF7Zmo24iJ-26" value="" style="endArrow=none;html=1;rounded=0;entryX=0;entryY=0.5;entryDx=0;entryDy=0;exitX=1;exitY=1;exitDx=0;exitDy=0;" parent="VV_m7M94F2-GDkZLRUmD-1" source="ZPwJOs-ACYiF7Zmo24iJ-27" target="ZPwJOs-ACYiF7Zmo24iJ-6" edge="1">
          <mxGeometry width="50" height="50" relative="1" as="geometry">
            <mxPoint x="45.26946107784432" y="75.06430868167202" as="sourcePoint" />
            <mxPoint x="51.73652694610779" y="58.745980707395496" as="targetPoint" />
          </mxGeometry>
        </mxCell>
        <mxCell id="ZPwJOs-ACYiF7Zmo24iJ-27" value="&lt;font style=&quot;font-size: 10px;&quot;&gt;Email&lt;/font&gt;" style="ellipse;whiteSpace=wrap;html=1;align=center;" parent="VV_m7M94F2-GDkZLRUmD-1" vertex="1">
          <mxGeometry x="6.467065868263473" y="39.16398713826367" width="45.26946107784432" height="26.109324758842444" as="geometry" />
        </mxCell>
        <mxCell id="ZPwJOs-ACYiF7Zmo24iJ-28" value="" style="endArrow=none;html=1;rounded=0;entryX=0;entryY=0;entryDx=0;entryDy=0;exitX=1;exitY=1;exitDx=0;exitDy=0;" parent="VV_m7M94F2-GDkZLRUmD-1" source="ZPwJOs-ACYiF7Zmo24iJ-29" target="ZPwJOs-ACYiF7Zmo24iJ-6" edge="1">
          <mxGeometry width="50" height="50" relative="1" as="geometry">
            <mxPoint x="64.67065868263474" y="52.21864951768489" as="sourcePoint" />
            <mxPoint x="232.81437125748505" y="58.745980707395496" as="targetPoint" />
          </mxGeometry>
        </mxCell>
        <mxCell id="ZPwJOs-ACYiF7Zmo24iJ-29" value="&lt;font style=&quot;font-size: 10px;&quot;&gt;Name&lt;/font&gt;" style="ellipse;whiteSpace=wrap;html=1;align=center;" parent="VV_m7M94F2-GDkZLRUmD-1" vertex="1">
          <mxGeometry x="12.934131736526947" y="6.527331189710611" width="45.26946107784432" height="26.109324758842444" as="geometry" />
        </mxCell>
        <mxCell id="ZPwJOs-ACYiF7Zmo24iJ-30" value="&lt;font style=&quot;font-size: 10px;&quot;&gt;Address&lt;/font&gt;" style="ellipse;whiteSpace=wrap;html=1;align=center;" parent="VV_m7M94F2-GDkZLRUmD-1" vertex="1">
          <mxGeometry y="71.80064308681672" width="45.26946107784432" height="26.109324758842444" as="geometry" />
        </mxCell>
        <mxCell id="ZPwJOs-ACYiF7Zmo24iJ-31" value="" style="endArrow=none;html=1;rounded=0;exitX=1;exitY=0.5;exitDx=0;exitDy=0;entryX=0;entryY=0.75;entryDx=0;entryDy=0;" parent="VV_m7M94F2-GDkZLRUmD-1" source="ZPwJOs-ACYiF7Zmo24iJ-30" target="ZPwJOs-ACYiF7Zmo24iJ-6" edge="1">
          <mxGeometry width="50" height="50" relative="1" as="geometry">
            <mxPoint x="200.4790419161677" y="91.38263665594855" as="sourcePoint" />
            <mxPoint x="232.81437125748505" y="58.745980707395496" as="targetPoint" />
          </mxGeometry>
        </mxCell>
        <mxCell id="ZPwJOs-ACYiF7Zmo24iJ-32" value="&lt;font style=&quot;font-size: 9px;&quot;&gt;Language&lt;/font&gt;" style="ellipse;whiteSpace=wrap;html=1;align=center;" parent="VV_m7M94F2-GDkZLRUmD-1" vertex="1">
          <mxGeometry x="64.67065868263474" width="45.26946107784432" height="26.109324758842444" as="geometry" />
        </mxCell>
        <mxCell id="ZPwJOs-ACYiF7Zmo24iJ-33" value="" style="endArrow=none;html=1;rounded=0;entryX=0.25;entryY=0;entryDx=0;entryDy=0;exitX=0.5;exitY=1;exitDx=0;exitDy=0;" parent="VV_m7M94F2-GDkZLRUmD-1" source="ZPwJOs-ACYiF7Zmo24iJ-32" target="ZPwJOs-ACYiF7Zmo24iJ-6" edge="1">
          <mxGeometry width="50" height="50" relative="1" as="geometry">
            <mxPoint x="135.80838323353294" y="26.109324758842444" as="sourcePoint" />
            <mxPoint x="168.14371257485033" y="45.038585209003216" as="targetPoint" />
          </mxGeometry>
        </mxCell>
        <mxCell id="ZPwJOs-ACYiF7Zmo24iJ-34" value="" style="endArrow=none;html=1;rounded=0;entryX=0;entryY=1;entryDx=0;entryDy=0;exitX=1;exitY=0.5;exitDx=0;exitDy=0;" parent="VV_m7M94F2-GDkZLRUmD-1" source="ZPwJOs-ACYiF7Zmo24iJ-35" target="ZPwJOs-ACYiF7Zmo24iJ-6" edge="1">
          <mxGeometry width="50" height="50" relative="1" as="geometry">
            <mxPoint x="51.73652694610779" y="110.96463022508038" as="sourcePoint" />
            <mxPoint x="71.13772455089821" y="103.13183279742765" as="targetPoint" />
          </mxGeometry>
        </mxCell>
        <mxCell id="ZPwJOs-ACYiF7Zmo24iJ-35" value="&lt;font style=&quot;font-size: 8px;&quot;&gt;LoginName&lt;/font&gt;" style="ellipse;whiteSpace=wrap;html=1;align=center;" parent="VV_m7M94F2-GDkZLRUmD-1" vertex="1">
          <mxGeometry y="104.43729903536978" width="45.26946107784432" height="26.109324758842444" as="geometry" />
        </mxCell>
        <mxCell id="ZPwJOs-ACYiF7Zmo24iJ-36" value="" style="endArrow=none;html=1;rounded=0;entryX=0.25;entryY=1;entryDx=0;entryDy=0;exitX=0.771;exitY=0;exitDx=0;exitDy=0;exitPerimeter=0;" parent="VV_m7M94F2-GDkZLRUmD-1" source="ZPwJOs-ACYiF7Zmo24iJ-37" target="ZPwJOs-ACYiF7Zmo24iJ-6" edge="1">
          <mxGeometry width="50" height="50" relative="1" as="geometry">
            <mxPoint x="71.13772455089821" y="124.01929260450162" as="sourcePoint" />
            <mxPoint x="97.0059880239521" y="91.38263665594855" as="targetPoint" />
          </mxGeometry>
        </mxCell>
        <mxCell id="ZPwJOs-ACYiF7Zmo24iJ-37" value="&lt;font style=&quot;font-size: 9px;&quot;&gt;Password&lt;/font&gt;" style="ellipse;whiteSpace=wrap;html=1;align=center;" parent="VV_m7M94F2-GDkZLRUmD-1" vertex="1">
          <mxGeometry x="29.10179640718563" y="130.54662379421222" width="45.26946107784432" height="26.109324758842444" as="geometry" />
        </mxCell>
        <mxCell id="ZPwJOs-ACYiF7Zmo24iJ-38" value="" style="endArrow=none;html=1;rounded=0;entryX=0.5;entryY=0;entryDx=0;entryDy=0;exitX=0;exitY=1;exitDx=0;exitDy=0;" parent="VV_m7M94F2-GDkZLRUmD-1" source="ZPwJOs-ACYiF7Zmo24iJ-39" target="ZPwJOs-ACYiF7Zmo24iJ-6" edge="1">
          <mxGeometry width="50" height="50" relative="1" as="geometry">
            <mxPoint x="116.40718562874252" y="39.16398713826367" as="sourcePoint" />
            <mxPoint x="122.874251497006" y="71.80064308681672" as="targetPoint" />
          </mxGeometry>
        </mxCell>
        <mxCell id="ZPwJOs-ACYiF7Zmo24iJ-39" value="&lt;font style=&quot;font-size: 8px;&quot;&gt;Trips Taken&lt;/font&gt;" style="ellipse;whiteSpace=wrap;html=1;align=center;" parent="VV_m7M94F2-GDkZLRUmD-1" vertex="1">
          <mxGeometry x="116.40718562874252" width="45.26946107784432" height="26.109324758842444" as="geometry" />
        </mxCell>
        <mxCell id="ZPwJOs-ACYiF7Zmo24iJ-40" value="" style="endArrow=none;html=1;rounded=0;entryX=0.75;entryY=1;entryDx=0;entryDy=0;" parent="VV_m7M94F2-GDkZLRUmD-1" source="ZPwJOs-ACYiF7Zmo24iJ-41" target="ZPwJOs-ACYiF7Zmo24iJ-6" edge="1">
          <mxGeometry width="50" height="50" relative="1" as="geometry">
            <mxPoint x="135.80838323353294" y="117.49196141479099" as="sourcePoint" />
            <mxPoint x="129.34131736526948" y="173.62700964630224" as="targetPoint" />
          </mxGeometry>
        </mxCell>
        <mxCell id="ZPwJOs-ACYiF7Zmo24iJ-41" value="&lt;font style=&quot;font-size: 9px;&quot;&gt;KM Biked&lt;/font&gt;" style="ellipse;whiteSpace=wrap;html=1;align=center;" parent="VV_m7M94F2-GDkZLRUmD-1" vertex="1">
          <mxGeometry x="103.47305389221557" y="117.49196141479099" width="45.26946107784432" height="26.109324758842444" as="geometry" />
        </mxCell>
        <mxCell id="ZPwJOs-ACYiF7Zmo24iJ-44" value="&lt;font style=&quot;font-size: 10px;&quot;&gt;OneTimeRental&lt;/font&gt;" style="whiteSpace=wrap;html=1;align=center;" parent="VV_m7M94F2-GDkZLRUmD-1" vertex="1">
          <mxGeometry x="268.3832335329342" y="176.2379421221865" width="71.13772455089821" height="32.636655948553056" as="geometry" />
        </mxCell>
        <mxCell id="iYZZ7Fj1_z0W4IQOYZlQ-8" style="edgeStyle=orthogonalEdgeStyle;rounded=0;orthogonalLoop=1;jettySize=auto;html=1;entryX=0;entryY=0.5;entryDx=0;entryDy=0;" parent="VV_m7M94F2-GDkZLRUmD-1" source="4O4JVGUMtCNLN3ScFyq3-8" target="rIilhEU5xWA09Vjhrhn--18" edge="1">
          <mxGeometry relative="1" as="geometry" />
        </mxCell>
        <mxCell id="ZPwJOs-ACYiF7Zmo24iJ-45" value="" style="endArrow=none;html=1;rounded=0;exitX=1;exitY=1;exitDx=0;exitDy=0;entryX=1;entryY=1;entryDx=0;entryDy=0;" parent="VV_m7M94F2-GDkZLRUmD-1" source="ZPwJOs-ACYiF7Zmo24iJ-46" target="ZPwJOs-ACYiF7Zmo24iJ-44" edge="1">
          <mxGeometry width="50" height="50" relative="1" as="geometry">
            <mxPoint x="271.6167664670659" y="207.2427652733119" as="sourcePoint" />
            <mxPoint x="271.6167664670659" y="176.2379421221865" as="targetPoint" />
          </mxGeometry>
        </mxCell>
        <mxCell id="ZPwJOs-ACYiF7Zmo24iJ-46" value="&lt;u&gt;&lt;font style=&quot;font-size: 10px;&quot;&gt;RentalID&lt;/font&gt;&lt;/u&gt;" style="ellipse;whiteSpace=wrap;html=1;" parent="VV_m7M94F2-GDkZLRUmD-1" vertex="1">
          <mxGeometry x="352.4550898203593" y="189.2926045016077" width="58.20359281437126" height="32.636655948553056" as="geometry" />
        </mxCell>
        <mxCell id="ZPwJOs-ACYiF7Zmo24iJ-47" value="" style="endArrow=none;html=1;rounded=0;entryX=1;entryY=0;entryDx=0;entryDy=0;exitX=0;exitY=1;exitDx=0;exitDy=0;" parent="VV_m7M94F2-GDkZLRUmD-1" source="ZPwJOs-ACYiF7Zmo24iJ-48" target="ZPwJOs-ACYiF7Zmo24iJ-44" edge="1">
          <mxGeometry width="50" height="50" relative="1" as="geometry">
            <mxPoint x="307.185628742515" y="213.77009646302253" as="sourcePoint" />
            <mxPoint x="177.8443113772455" y="181.13344051446947" as="targetPoint" />
          </mxGeometry>
        </mxCell>
        <mxCell id="ZPwJOs-ACYiF7Zmo24iJ-48" value="&lt;font style=&quot;font-size: 8px;&quot;&gt;FiveDigitCode&lt;/font&gt;" style="ellipse;whiteSpace=wrap;html=1;" parent="VV_m7M94F2-GDkZLRUmD-1" vertex="1">
          <mxGeometry x="352.4550898203593" y="137.07395498392285" width="58.20359281437126" height="32.636655948553056" as="geometry" />
        </mxCell>
        <mxCell id="ZPwJOs-ACYiF7Zmo24iJ-49" value="Has" style="shape=rhombus;perimeter=rhombusPerimeter;whiteSpace=wrap;html=1;align=center;" parent="VV_m7M94F2-GDkZLRUmD-1" vertex="1">
          <mxGeometry x="278.08383233532936" y="124.01929260450162" width="51.73652694610779" height="39.16398713826367" as="geometry" />
        </mxCell>
        <mxCell id="ZPwJOs-ACYiF7Zmo24iJ-51" value="Rents" style="shape=rhombus;perimeter=rhombusPerimeter;whiteSpace=wrap;html=1;align=center;" parent="VV_m7M94F2-GDkZLRUmD-1" vertex="1">
          <mxGeometry x="420.3592814371258" y="262.7250803858521" width="58.20359281437126" height="39.16398713826367" as="geometry" />
        </mxCell>
        <mxCell id="iYZZ7Fj1_z0W4IQOYZlQ-20" style="edgeStyle=orthogonalEdgeStyle;rounded=0;orthogonalLoop=1;jettySize=auto;html=1;entryX=0;entryY=0.5;entryDx=0;entryDy=0;" parent="VV_m7M94F2-GDkZLRUmD-1" source="iYZZ7Fj1_z0W4IQOYZlQ-1" target="ZPwJOs-ACYiF7Zmo24iJ-51" edge="1">
          <mxGeometry relative="1" as="geometry" />
        </mxCell>
        <mxCell id="iYZZ7Fj1_z0W4IQOYZlQ-1" value="Trip" style="whiteSpace=wrap;html=1;align=center;" parent="VV_m7M94F2-GDkZLRUmD-1" vertex="1">
          <mxGeometry x="271.6167664670659" y="269.25241157556275" width="64.67065868263474" height="26.109324758842444" as="geometry" />
        </mxCell>
        <mxCell id="iYZZ7Fj1_z0W4IQOYZlQ-2" value="" style="endArrow=none;html=1;rounded=0;entryX=0;entryY=1;entryDx=0;entryDy=0;exitX=0.5;exitY=1;exitDx=0;exitDy=0;" parent="VV_m7M94F2-GDkZLRUmD-1" source="iYZZ7Fj1_z0W4IQOYZlQ-3" target="iYZZ7Fj1_z0W4IQOYZlQ-1" edge="1">
          <mxGeometry width="50" height="50" relative="1" as="geometry">
            <mxPoint x="239.28143712574854" y="223.56109324758845" as="sourcePoint" />
            <mxPoint x="252.21556886227546" y="223.56109324758845" as="targetPoint" />
          </mxGeometry>
        </mxCell>
        <mxCell id="iYZZ7Fj1_z0W4IQOYZlQ-3" value="&lt;u&gt;&lt;font style=&quot;font-size: 11px;&quot;&gt;TripID&lt;/font&gt;&lt;/u&gt;" style="ellipse;whiteSpace=wrap;html=1;" parent="VV_m7M94F2-GDkZLRUmD-1" vertex="1">
          <mxGeometry x="219.88023952095813" y="314.94372990353696" width="45.26946107784432" height="32.636655948553056" as="geometry" />
        </mxCell>
        <mxCell id="iYZZ7Fj1_z0W4IQOYZlQ-4" value="" style="endArrow=none;html=1;rounded=0;exitX=1;exitY=0;exitDx=0;exitDy=0;" parent="VV_m7M94F2-GDkZLRUmD-1" source="iYZZ7Fj1_z0W4IQOYZlQ-1" target="iYZZ7Fj1_z0W4IQOYZlQ-5" edge="1">
          <mxGeometry width="50" height="50" relative="1" as="geometry">
            <mxPoint x="336.28742514970065" y="267.62057877813504" as="sourcePoint" />
            <mxPoint x="291.01796407185634" y="217.0337620578778" as="targetPoint" />
          </mxGeometry>
        </mxCell>
        <mxCell id="iYZZ7Fj1_z0W4IQOYZlQ-5" value="&lt;font style=&quot;font-size: 9px;&quot;&gt;StartTime&lt;/font&gt;" style="ellipse;whiteSpace=wrap;html=1;" parent="VV_m7M94F2-GDkZLRUmD-1" vertex="1">
          <mxGeometry x="352.4550898203593" y="241.5112540192926" width="45.26946107784432" height="26.109324758842444" as="geometry" />
        </mxCell>
        <mxCell id="iYZZ7Fj1_z0W4IQOYZlQ-6" value="" style="endArrow=none;html=1;rounded=0;exitX=1;exitY=1;exitDx=0;exitDy=0;" parent="VV_m7M94F2-GDkZLRUmD-1" source="iYZZ7Fj1_z0W4IQOYZlQ-1" target="iYZZ7Fj1_z0W4IQOYZlQ-7" edge="1">
          <mxGeometry width="50" height="50" relative="1" as="geometry">
            <mxPoint x="329.82035928143716" y="326.36655948553056" as="sourcePoint" />
            <mxPoint x="329.82035928143716" y="223.56109324758845" as="targetPoint" />
          </mxGeometry>
        </mxCell>
        <mxCell id="iYZZ7Fj1_z0W4IQOYZlQ-7" value="&lt;font style=&quot;font-size: 9px;&quot;&gt;ReturnTime&lt;/font&gt;" style="ellipse;whiteSpace=wrap;html=1;" parent="VV_m7M94F2-GDkZLRUmD-1" vertex="1">
          <mxGeometry x="352.4550898203593" y="301.8890675241158" width="51.73652694610779" height="29.372990353697748" as="geometry" />
        </mxCell>
        <mxCell id="iYZZ7Fj1_z0W4IQOYZlQ-11" value="" style="endArrow=classic;html=1;rounded=0;exitX=0.5;exitY=0;exitDx=0;exitDy=0;entryX=0.5;entryY=1;entryDx=0;entryDy=0;" parent="VV_m7M94F2-GDkZLRUmD-1" source="ZPwJOs-ACYiF7Zmo24iJ-44" target="ZPwJOs-ACYiF7Zmo24iJ-49" edge="1">
          <mxGeometry width="50" height="50" relative="1" as="geometry">
            <mxPoint x="446.2275449101797" y="215.40192926045017" as="sourcePoint" />
            <mxPoint x="478.5628742514971" y="182.7652733118971" as="targetPoint" />
          </mxGeometry>
        </mxCell>
        <mxCell id="iYZZ7Fj1_z0W4IQOYZlQ-12" value="" style="endArrow=none;html=1;rounded=0;exitX=0.5;exitY=0;exitDx=0;exitDy=0;entryX=0.25;entryY=1;entryDx=0;entryDy=0;" parent="VV_m7M94F2-GDkZLRUmD-1" source="ZPwJOs-ACYiF7Zmo24iJ-49" target="ZPwJOs-ACYiF7Zmo24iJ-21" edge="1">
          <mxGeometry width="50" height="50" relative="1" as="geometry">
            <mxPoint x="446.2275449101797" y="215.40192926045017" as="sourcePoint" />
            <mxPoint x="478.5628742514971" y="182.7652733118971" as="targetPoint" />
          </mxGeometry>
        </mxCell>
        <mxCell id="iYZZ7Fj1_z0W4IQOYZlQ-13" value="" style="endArrow=none;html=1;rounded=0;entryX=0;entryY=0.5;entryDx=0;entryDy=0;exitX=1;exitY=0.5;exitDx=0;exitDy=0;" parent="VV_m7M94F2-GDkZLRUmD-1" source="ZPwJOs-ACYiF7Zmo24iJ-18" target="ZPwJOs-ACYiF7Zmo24iJ-21" edge="1">
          <mxGeometry width="50" height="50" relative="1" as="geometry">
            <mxPoint x="446.2275449101797" y="215.40192926045017" as="sourcePoint" />
            <mxPoint x="478.5628742514971" y="182.7652733118971" as="targetPoint" />
          </mxGeometry>
        </mxCell>
        <mxCell id="iYZZ7Fj1_z0W4IQOYZlQ-16" value="&lt;font style=&quot;font-size: 7px;&quot;&gt;Goes On&lt;/font&gt;" style="shape=rhombus;perimeter=rhombusPerimeter;whiteSpace=wrap;html=1;align=center;" parent="VV_m7M94F2-GDkZLRUmD-1" vertex="1">
          <mxGeometry x="282.93413173652704" y="221.92926045016077" width="42.03592814371258" height="32.636655948553056" as="geometry" />
        </mxCell>
        <mxCell id="iYZZ7Fj1_z0W4IQOYZlQ-17" value="" style="endArrow=classic;html=1;rounded=0;exitX=0.5;exitY=0;exitDx=0;exitDy=0;entryX=0.5;entryY=1;entryDx=0;entryDy=0;" parent="VV_m7M94F2-GDkZLRUmD-1" source="iYZZ7Fj1_z0W4IQOYZlQ-1" target="iYZZ7Fj1_z0W4IQOYZlQ-16" edge="1">
          <mxGeometry width="50" height="50" relative="1" as="geometry">
            <mxPoint x="355.688622754491" y="265.9887459807074" as="sourcePoint" />
            <mxPoint x="388.0239520958084" y="233.35209003215436" as="targetPoint" />
          </mxGeometry>
        </mxCell>
        <mxCell id="iYZZ7Fj1_z0W4IQOYZlQ-22" value="&lt;font style=&quot;font-size: 9px;&quot;&gt;Goes On&lt;/font&gt;" style="shape=rhombus;perimeter=rhombusPerimeter;whiteSpace=wrap;html=1;align=center;" parent="VV_m7M94F2-GDkZLRUmD-1" vertex="1">
          <mxGeometry x="187.54491017964074" y="176.2379421221865" width="42.03592814371258" height="32.636655948553056" as="geometry" />
        </mxCell>
        <mxCell id="iYZZ7Fj1_z0W4IQOYZlQ-23" value="" style="endArrow=classic;html=1;rounded=0;exitX=0;exitY=0;exitDx=0;exitDy=0;entryX=1;entryY=1;entryDx=0;entryDy=0;" parent="VV_m7M94F2-GDkZLRUmD-1" source="iYZZ7Fj1_z0W4IQOYZlQ-1" target="iYZZ7Fj1_z0W4IQOYZlQ-22" edge="1">
          <mxGeometry width="50" height="50" relative="1" as="geometry">
            <mxPoint x="310.41916167664675" y="176.2379421221865" as="sourcePoint" />
            <mxPoint x="342.7544910179641" y="143.60128617363344" as="targetPoint" />
          </mxGeometry>
        </mxCell>
        <mxCell id="iYZZ7Fj1_z0W4IQOYZlQ-24" value="" style="endArrow=none;html=1;rounded=0;exitX=1;exitY=1;exitDx=0;exitDy=0;entryX=0;entryY=0;entryDx=0;entryDy=0;" parent="VV_m7M94F2-GDkZLRUmD-1" source="ZPwJOs-ACYiF7Zmo24iJ-6" target="iYZZ7Fj1_z0W4IQOYZlQ-22" edge="1">
          <mxGeometry width="50" height="50" relative="1" as="geometry">
            <mxPoint x="310.41916167664675" y="176.2379421221865" as="sourcePoint" />
            <mxPoint x="342.7544910179641" y="143.60128617363344" as="targetPoint" />
          </mxGeometry>
        </mxCell>
        <mxCell id="iYZZ7Fj1_z0W4IQOYZlQ-25" value="" style="endArrow=none;html=1;rounded=0;exitX=0;exitY=1;exitDx=0;exitDy=0;" parent="VV_m7M94F2-GDkZLRUmD-1" source="4O4JVGUMtCNLN3ScFyq3-25" target="4O4JVGUMtCNLN3ScFyq3-30" edge="1">
          <mxGeometry width="50" height="50" relative="1" as="geometry">
            <mxPoint x="646.7065868263475" y="312.0064308681672" as="sourcePoint" />
            <mxPoint x="614.37125748503" y="345.9485530546624" as="targetPoint" />
          </mxGeometry>
        </mxCell>
        <mxCell id="4O4JVGUMtCNLN3ScFyq3-30" value="&lt;font style=&quot;font-size: 8px;&quot;&gt;BatteryLevel&lt;/font&gt;" style="ellipse;whiteSpace=wrap;html=1;" parent="VV_m7M94F2-GDkZLRUmD-1" vertex="1">
          <mxGeometry x="607.9041916167665" y="321.4710610932476" width="51.73652694610779" height="35.90032154340836" as="geometry" />
        </mxCell>
        <mxCell id="iYZZ7Fj1_z0W4IQOYZlQ-26" value="&lt;font style=&quot;font-size: 9px;&quot;&gt;ArrivesAt&lt;/font&gt;" style="shape=rhombus;perimeter=rhombusPerimeter;whiteSpace=wrap;html=1;align=center;" parent="VV_m7M94F2-GDkZLRUmD-1" vertex="1">
          <mxGeometry x="633.77" y="398.17" width="76.23" height="32.64" as="geometry" />
        </mxCell>
        <mxCell id="iYZZ7Fj1_z0W4IQOYZlQ-28" value="&lt;font style=&quot;font-size: 9px;&quot;&gt;DepartsFrom&lt;/font&gt;" style="shape=rhombus;perimeter=rhombusPerimeter;whiteSpace=wrap;html=1;align=center;" parent="VV_m7M94F2-GDkZLRUmD-1" vertex="1">
          <mxGeometry x="637.01" y="437.33" width="72.99" height="32.64" as="geometry" />
        </mxCell>
        <mxCell id="iYZZ7Fj1_z0W4IQOYZlQ-29" value="" style="endArrow=classic;html=1;rounded=0;exitX=0.75;exitY=1;exitDx=0;exitDy=0;entryX=0;entryY=0.5;entryDx=0;entryDy=0;" parent="VV_m7M94F2-GDkZLRUmD-1" source="iYZZ7Fj1_z0W4IQOYZlQ-1" target="iYZZ7Fj1_z0W4IQOYZlQ-26" edge="1">
          <mxGeometry width="50" height="50" relative="1" as="geometry">
            <mxPoint x="588.5029940119762" y="228.4565916398714" as="sourcePoint" />
            <mxPoint x="620.8383233532935" y="195.81993569131834" as="targetPoint" />
            <Array as="points">
              <mxPoint x="320.119760479042" y="414.4855305466238" />
            </Array>
          </mxGeometry>
        </mxCell>
        <mxCell id="iYZZ7Fj1_z0W4IQOYZlQ-30" value="" style="endArrow=classic;html=1;rounded=0;exitX=0.25;exitY=1;exitDx=0;exitDy=0;entryX=0;entryY=0.5;entryDx=0;entryDy=0;" parent="VV_m7M94F2-GDkZLRUmD-1" source="iYZZ7Fj1_z0W4IQOYZlQ-1" target="iYZZ7Fj1_z0W4IQOYZlQ-28" edge="1">
          <mxGeometry width="50" height="50" relative="1" as="geometry">
            <mxPoint x="588.5029940119762" y="228.4565916398714" as="sourcePoint" />
            <mxPoint x="620.8383233532935" y="195.81993569131834" as="targetPoint" />
            <Array as="points">
              <mxPoint x="291.01796407185634" y="453.6495176848874" />
            </Array>
          </mxGeometry>
        </mxCell>
        <mxCell id="iYZZ7Fj1_z0W4IQOYZlQ-31" value="" style="endArrow=none;html=1;rounded=0;exitX=1;exitY=0.5;exitDx=0;exitDy=0;entryX=0;entryY=0;entryDx=0;entryDy=0;" parent="VV_m7M94F2-GDkZLRUmD-1" source="iYZZ7Fj1_z0W4IQOYZlQ-26" target="rIilhEU5xWA09Vjhrhn--2" edge="1">
          <mxGeometry width="50" height="50" relative="1" as="geometry">
            <mxPoint x="588.5029940119762" y="228.4565916398714" as="sourcePoint" />
            <mxPoint x="918.3233532934132" y="414.4855305466238" as="targetPoint" />
          </mxGeometry>
        </mxCell>
        <mxCell id="iYZZ7Fj1_z0W4IQOYZlQ-32" value="" style="endArrow=none;html=1;rounded=0;exitX=1;exitY=0.5;exitDx=0;exitDy=0;entryX=0;entryY=1;entryDx=0;entryDy=0;" parent="VV_m7M94F2-GDkZLRUmD-1" source="iYZZ7Fj1_z0W4IQOYZlQ-28" target="rIilhEU5xWA09Vjhrhn--2" edge="1">
          <mxGeometry width="50" height="50" relative="1" as="geometry">
            <mxPoint x="588.5029940119762" y="228.4565916398714" as="sourcePoint" />
            <mxPoint x="924.7904191616767" y="430.80385852090035" as="targetPoint" />
          </mxGeometry>
        </mxCell>
        <mxCell id="iYZZ7Fj1_z0W4IQOYZlQ-33" value="" style="endArrow=none;html=1;rounded=0;exitX=1;exitY=0;exitDx=0;exitDy=0;entryX=0;entryY=1;entryDx=0;entryDy=0;" parent="VV_m7M94F2-GDkZLRUmD-1" source="rIilhEU5xWA09Vjhrhn--2" target="rIilhEU5xWA09Vjhrhn--4" edge="1">
          <mxGeometry width="50" height="50" relative="1" as="geometry">
            <mxPoint x="588.5029940119762" y="228.4565916398714" as="sourcePoint" />
            <mxPoint x="620.8383233532935" y="195.81993569131834" as="targetPoint" />
          </mxGeometry>
        </mxCell>
        <mxCell id="iYZZ7Fj1_z0W4IQOYZlQ-34" value="Statement" style="whiteSpace=wrap;html=1;align=center;fontSize=9;" parent="VV_m7M94F2-GDkZLRUmD-1" vertex="1">
          <mxGeometry x="71.13772455089821" y="269.25241157556275" width="64.67065868263474" height="26.109324758842444" as="geometry" />
        </mxCell>
        <mxCell id="iYZZ7Fj1_z0W4IQOYZlQ-35" value="&lt;font style=&quot;font-size: 10px;&quot;&gt;Charges&lt;/font&gt;" style="shape=rhombus;perimeter=rhombusPerimeter;whiteSpace=wrap;html=1;align=center;" parent="VV_m7M94F2-GDkZLRUmD-1" vertex="1">
          <mxGeometry x="168.14371257485033" y="263.5409967845659" width="61.437125748503" height="37.53215434083601" as="geometry" />
        </mxCell>
        <mxCell id="iYZZ7Fj1_z0W4IQOYZlQ-37" value="" style="endArrow=none;html=1;rounded=0;exitX=1;exitY=0.5;exitDx=0;exitDy=0;entryX=0;entryY=0.5;entryDx=0;entryDy=0;" parent="VV_m7M94F2-GDkZLRUmD-1" source="iYZZ7Fj1_z0W4IQOYZlQ-34" target="iYZZ7Fj1_z0W4IQOYZlQ-35" edge="1">
          <mxGeometry width="50" height="50" relative="1" as="geometry">
            <mxPoint x="562.6347305389222" y="163.18327974276528" as="sourcePoint" />
            <mxPoint x="594.9700598802397" y="130.54662379421222" as="targetPoint" />
          </mxGeometry>
        </mxCell>
        <mxCell id="iYZZ7Fj1_z0W4IQOYZlQ-38" value="" style="endArrow=none;html=1;rounded=0;exitX=0;exitY=0.25;exitDx=0;exitDy=0;entryX=1;entryY=1;entryDx=0;entryDy=0;" parent="VV_m7M94F2-GDkZLRUmD-1" source="iYZZ7Fj1_z0W4IQOYZlQ-1" target="iYZZ7Fj1_z0W4IQOYZlQ-40" edge="1">
          <mxGeometry width="50" height="50" relative="1" as="geometry">
            <mxPoint x="562.6347305389222" y="163.18327974276528" as="sourcePoint" />
            <mxPoint x="199.18562874251498" y="248.03858520900323" as="targetPoint" />
          </mxGeometry>
        </mxCell>
        <mxCell id="iYZZ7Fj1_z0W4IQOYZlQ-40" value="&lt;font style=&quot;font-size: 10px;&quot;&gt;Amount&lt;/font&gt;" style="ellipse;whiteSpace=wrap;html=1;align=center;" parent="VV_m7M94F2-GDkZLRUmD-1" vertex="1">
          <mxGeometry x="206.94610778443115" y="244.7749196141479" width="45.26946107784432" height="19.581993569131836" as="geometry" />
        </mxCell>
        <mxCell id="iYZZ7Fj1_z0W4IQOYZlQ-41" value="&lt;font style=&quot;font-size: 9px;&quot;&gt;Pays&lt;/font&gt;" style="shape=rhombus;perimeter=rhombusPerimeter;whiteSpace=wrap;html=1;align=center;" parent="VV_m7M94F2-GDkZLRUmD-1" vertex="1">
          <mxGeometry x="85.68862275449102" y="234.98392282958199" width="35.568862275449106" height="19.581993569131836" as="geometry" />
        </mxCell>
        <mxCell id="iYZZ7Fj1_z0W4IQOYZlQ-43" value="" style="endArrow=classic;html=1;rounded=0;exitX=0.5;exitY=0;exitDx=0;exitDy=0;entryX=0.5;entryY=1;entryDx=0;entryDy=0;" parent="VV_m7M94F2-GDkZLRUmD-1" source="iYZZ7Fj1_z0W4IQOYZlQ-34" target="iYZZ7Fj1_z0W4IQOYZlQ-41" edge="1">
          <mxGeometry width="50" height="50" relative="1" as="geometry">
            <mxPoint x="323.35329341317373" y="221.92926045016077" as="sourcePoint" />
            <mxPoint x="355.688622754491" y="189.2926045016077" as="targetPoint" />
          </mxGeometry>
        </mxCell>
        <mxCell id="iYZZ7Fj1_z0W4IQOYZlQ-44" value="" style="endArrow=none;html=1;rounded=0;exitX=0.5;exitY=1;exitDx=0;exitDy=0;entryX=0.5;entryY=0;entryDx=0;entryDy=0;" parent="VV_m7M94F2-GDkZLRUmD-1" source="ZPwJOs-ACYiF7Zmo24iJ-12" target="iYZZ7Fj1_z0W4IQOYZlQ-41" edge="1">
          <mxGeometry width="50" height="50" relative="1" as="geometry">
            <mxPoint x="323.35329341317373" y="221.92926045016077" as="sourcePoint" />
            <mxPoint x="355.688622754491" y="189.2926045016077" as="targetPoint" />
          </mxGeometry>
        </mxCell>
        <mxCell id="iYZZ7Fj1_z0W4IQOYZlQ-45" value="" style="endArrow=none;html=1;rounded=0;entryX=0;entryY=1;entryDx=0;entryDy=0;exitX=0.5;exitY=0;exitDx=0;exitDy=0;" parent="VV_m7M94F2-GDkZLRUmD-1" source="iYZZ7Fj1_z0W4IQOYZlQ-47" target="iYZZ7Fj1_z0W4IQOYZlQ-34" edge="1">
          <mxGeometry width="50" height="50" relative="1" as="geometry">
            <mxPoint x="64.67065868263474" y="313.31189710610937" as="sourcePoint" />
            <mxPoint x="80.83832335329343" y="300.25723472668807" as="targetPoint" />
          </mxGeometry>
        </mxCell>
        <mxCell id="iYZZ7Fj1_z0W4IQOYZlQ-47" value="&lt;u&gt;&lt;font style=&quot;font-size: 9px;&quot;&gt;StatementID&lt;/font&gt;&lt;/u&gt;" style="ellipse;whiteSpace=wrap;html=1;align=center;" parent="VV_m7M94F2-GDkZLRUmD-1" vertex="1">
          <mxGeometry x="29.10179640718563" y="305.15273311897107" width="64.67065868263474" height="26.109324758842444" as="geometry" />
        </mxCell>
        <mxCell id="iYZZ7Fj1_z0W4IQOYZlQ-48" value="" style="endArrow=none;html=1;rounded=0;entryX=0.75;entryY=1;entryDx=0;entryDy=0;exitX=0;exitY=0;exitDx=0;exitDy=0;" parent="VV_m7M94F2-GDkZLRUmD-1" source="iYZZ7Fj1_z0W4IQOYZlQ-49" target="iYZZ7Fj1_z0W4IQOYZlQ-34" edge="1">
          <mxGeometry width="50" height="50" relative="1" as="geometry">
            <mxPoint x="135.80838323353294" y="313.31189710610937" as="sourcePoint" />
            <mxPoint x="355.688622754491" y="189.2926045016077" as="targetPoint" />
          </mxGeometry>
        </mxCell>
        <mxCell id="iYZZ7Fj1_z0W4IQOYZlQ-49" value="&lt;font style=&quot;font-size: 8px;&quot;&gt;Total Amount&lt;/font&gt;" style="ellipse;whiteSpace=wrap;html=1;align=center;" parent="VV_m7M94F2-GDkZLRUmD-1" vertex="1">
          <mxGeometry x="116.40718562874252" y="306.7845659163987" width="51.73652694610779" height="22.845659163987136" as="geometry" />
        </mxCell>
        <mxCell id="iYZZ7Fj1_z0W4IQOYZlQ-36" style="edgeStyle=orthogonalEdgeStyle;rounded=0;orthogonalLoop=1;jettySize=auto;html=1;entryX=1;entryY=0.5;entryDx=0;entryDy=0;" parent="VV_m7M94F2-GDkZLRUmD-1" source="iYZZ7Fj1_z0W4IQOYZlQ-1" target="iYZZ7Fj1_z0W4IQOYZlQ-35" edge="1">
          <mxGeometry relative="1" as="geometry" />
        </mxCell>
        <mxCell id="iYZZ7Fj1_z0W4IQOYZlQ-50" value="" style="endArrow=none;html=1;rounded=0;entryX=0;entryY=0.5;entryDx=0;entryDy=0;exitX=1;exitY=0;exitDx=0;exitDy=0;" parent="VV_m7M94F2-GDkZLRUmD-1" source="ZPwJOs-ACYiF7Zmo24iJ-51" target="4O4JVGUMtCNLN3ScFyq3-8" edge="1">
          <mxGeometry width="50" height="50" relative="1" as="geometry">
            <mxPoint x="504.4311377245509" y="261.09324758842445" as="sourcePoint" />
            <mxPoint x="536.7664670658684" y="228.4565916398714" as="targetPoint" />
          </mxGeometry>
        </mxCell>
        <mxCell id="VV_m7M94F2-GDkZLRUmD-2" value="" style="endArrow=classic;html=1;rounded=0;exitX=0.5;exitY=1;exitDx=0;exitDy=0;entryX=0.5;entryY=0;entryDx=0;entryDy=0;" edge="1" parent="VV_m7M94F2-GDkZLRUmD-1" source="ZPwJOs-ACYiF7Zmo24iJ-44" target="iYZZ7Fj1_z0W4IQOYZlQ-16">
          <mxGeometry width="50" height="50" relative="1" as="geometry">
            <mxPoint x="190" y="190" as="sourcePoint" />
            <mxPoint x="240" y="140" as="targetPoint" />
          </mxGeometry>
        </mxCell>
      </root>
    </mxGraphModel>
  </diagram>
  <diagram id="wMxtesCLycmGzlo17U3L" name="Stations">
    <mxGraphModel dx="1026" dy="692" grid="1" gridSize="10" guides="1" tooltips="1" connect="1" arrows="1" fold="1" page="1" pageScale="1" pageWidth="850" pageHeight="1100" math="0" shadow="0">
      <root>
        <mxCell id="0" />
        <mxCell id="1" parent="0" />
        <mxCell id="bP7i8nqNwNpWScvp2j4t-1" value="&lt;font style=&quot;font-size: 16px;&quot;&gt;Station&lt;/font&gt;" style="rounded=0;whiteSpace=wrap;html=1;" vertex="1" parent="1">
          <mxGeometry x="590" y="240" width="120" height="60" as="geometry" />
        </mxCell>
        <mxCell id="bP7i8nqNwNpWScvp2j4t-2" value="" style="endArrow=none;html=1;rounded=0;entryX=0;entryY=0;entryDx=0;entryDy=0;exitX=0.5;exitY=1;exitDx=0;exitDy=0;" edge="1" parent="1" target="bP7i8nqNwNpWScvp2j4t-1">
          <mxGeometry width="50" height="50" relative="1" as="geometry">
            <mxPoint x="545" y="170" as="sourcePoint" />
            <mxPoint x="710" y="350" as="targetPoint" />
          </mxGeometry>
        </mxCell>
        <mxCell id="bP7i8nqNwNpWScvp2j4t-3" value="name" style="ellipse;whiteSpace=wrap;html=1;" vertex="1" parent="1">
          <mxGeometry x="500" y="120" width="90" height="50" as="geometry" />
        </mxCell>
        <mxCell id="bP7i8nqNwNpWScvp2j4t-4" value="" style="endArrow=none;html=1;rounded=0;entryX=0.5;entryY=0;entryDx=0;entryDy=0;exitX=0.5;exitY=1;exitDx=0;exitDy=0;" edge="1" parent="1" source="bP7i8nqNwNpWScvp2j4t-5" target="bP7i8nqNwNpWScvp2j4t-1">
          <mxGeometry width="50" height="50" relative="1" as="geometry">
            <mxPoint x="755" y="160" as="sourcePoint" />
            <mxPoint x="635" y="240" as="targetPoint" />
          </mxGeometry>
        </mxCell>
        <mxCell id="bP7i8nqNwNpWScvp2j4t-5" value="&lt;u&gt;longitudeCoord&lt;/u&gt;" style="ellipse;whiteSpace=wrap;html=1;" vertex="1" parent="1">
          <mxGeometry x="605" y="120" width="90" height="50" as="geometry" />
        </mxCell>
        <mxCell id="bP7i8nqNwNpWScvp2j4t-8" value="" style="endArrow=none;html=1;rounded=0;entryX=1;entryY=0;entryDx=0;entryDy=0;exitX=0.5;exitY=1;exitDx=0;exitDy=0;" edge="1" parent="1" source="bP7i8nqNwNpWScvp2j4t-9" target="bP7i8nqNwNpWScvp2j4t-1">
          <mxGeometry width="50" height="50" relative="1" as="geometry">
            <mxPoint x="860" y="160" as="sourcePoint" />
            <mxPoint x="755" y="240" as="targetPoint" />
          </mxGeometry>
        </mxCell>
        <mxCell id="bP7i8nqNwNpWScvp2j4t-9" value="&lt;u&gt;latitudeCoord&lt;/u&gt;" style="ellipse;whiteSpace=wrap;html=1;" vertex="1" parent="1">
          <mxGeometry x="710" y="120" width="90" height="50" as="geometry" />
        </mxCell>
        <mxCell id="bP7i8nqNwNpWScvp2j4t-10" value="&lt;font style=&quot;font-size: 16px;&quot;&gt;Dock&lt;/font&gt;" style="rounded=0;whiteSpace=wrap;html=1;" vertex="1" parent="1">
          <mxGeometry x="130" y="240" width="130" height="60" as="geometry" />
        </mxCell>
        <mxCell id="bP7i8nqNwNpWScvp2j4t-11" value="" style="endArrow=none;html=1;rounded=0;entryX=0;entryY=0;entryDx=0;entryDy=0;exitX=0.5;exitY=1;exitDx=0;exitDy=0;" edge="1" parent="1" target="bP7i8nqNwNpWScvp2j4t-10">
          <mxGeometry width="50" height="50" relative="1" as="geometry">
            <mxPoint x="85" y="170" as="sourcePoint" />
            <mxPoint x="250" y="350" as="targetPoint" />
          </mxGeometry>
        </mxCell>
        <mxCell id="bP7i8nqNwNpWScvp2j4t-12" value="&lt;u&gt;number&lt;/u&gt;" style="ellipse;whiteSpace=wrap;html=1;" vertex="1" parent="1">
          <mxGeometry x="40" y="110" width="90" height="60" as="geometry" />
        </mxCell>
        <mxCell id="bP7i8nqNwNpWScvp2j4t-13" value="" style="endArrow=none;html=1;rounded=0;entryX=1;entryY=0;entryDx=0;entryDy=0;exitX=0.5;exitY=1;exitDx=0;exitDy=0;" edge="1" parent="1" source="bP7i8nqNwNpWScvp2j4t-14" target="bP7i8nqNwNpWScvp2j4t-10">
          <mxGeometry width="50" height="50" relative="1" as="geometry">
            <mxPoint x="270" y="170" as="sourcePoint" />
            <mxPoint x="200" y="240" as="targetPoint" />
          </mxGeometry>
        </mxCell>
        <mxCell id="bP7i8nqNwNpWScvp2j4t-14" value="isDefect" style="ellipse;whiteSpace=wrap;html=1;" vertex="1" parent="1">
          <mxGeometry x="260" y="120" width="90" height="50" as="geometry" />
        </mxCell>
        <mxCell id="bP7i8nqNwNpWScvp2j4t-17" value="" style="endArrow=classic;html=1;rounded=0;exitX=1;exitY=0.5;exitDx=0;exitDy=0;" edge="1" parent="1" source="bP7i8nqNwNpWScvp2j4t-10" target="bP7i8nqNwNpWScvp2j4t-20">
          <mxGeometry width="50" height="50" relative="1" as="geometry">
            <mxPoint x="400" y="380" as="sourcePoint" />
            <mxPoint x="390" y="270" as="targetPoint" />
          </mxGeometry>
        </mxCell>
        <mxCell id="bP7i8nqNwNpWScvp2j4t-20" value="Belongs" style="rhombus;whiteSpace=wrap;html=1;" vertex="1" parent="1">
          <mxGeometry x="370" y="230" width="110" height="80" as="geometry" />
        </mxCell>
        <mxCell id="bP7i8nqNwNpWScvp2j4t-21" value="" style="endArrow=none;html=1;rounded=0;exitX=1;exitY=0.5;exitDx=0;exitDy=0;entryX=0;entryY=0.5;entryDx=0;entryDy=0;" edge="1" parent="1" source="bP7i8nqNwNpWScvp2j4t-20" target="bP7i8nqNwNpWScvp2j4t-1">
          <mxGeometry width="50" height="50" relative="1" as="geometry">
            <mxPoint x="400" y="380" as="sourcePoint" />
            <mxPoint x="450" y="330" as="targetPoint" />
          </mxGeometry>
        </mxCell>
      </root>
    </mxGraphModel>
  </diagram>
  <diagram id="LTpqPezVULFjZQB5Y3Bu" name="Users">
    <mxGraphModel dx="1026" dy="692" grid="1" gridSize="10" guides="1" tooltips="1" connect="1" arrows="1" fold="1" page="1" pageScale="1" pageWidth="850" pageHeight="1100" math="0" shadow="0">
      <root>
        <mxCell id="0" />
        <mxCell id="1" parent="0" />
        <mxCell id="b0L9d9CiQQvxMUGxAGcj-16" value="&lt;font style=&quot;font-size: 16px;&quot;&gt;User&lt;/font&gt;" style="whiteSpace=wrap;html=1;align=center;" vertex="1" parent="1">
          <mxGeometry x="330" y="190" width="100" height="40" as="geometry" />
        </mxCell>
        <mxCell id="b0L9d9CiQQvxMUGxAGcj-17" value="" style="triangle;whiteSpace=wrap;html=1;direction=north;" vertex="1" parent="1">
          <mxGeometry x="345" y="250" width="70" height="40" as="geometry" />
        </mxCell>
        <mxCell id="b0L9d9CiQQvxMUGxAGcj-18" value="" style="endArrow=none;html=1;rounded=0;entryX=0.5;entryY=1;entryDx=0;entryDy=0;exitX=1;exitY=0.5;exitDx=0;exitDy=0;" edge="1" parent="1" source="b0L9d9CiQQvxMUGxAGcj-17" target="b0L9d9CiQQvxMUGxAGcj-16">
          <mxGeometry width="50" height="50" relative="1" as="geometry">
            <mxPoint x="370" y="470" as="sourcePoint" />
            <mxPoint x="420" y="420" as="targetPoint" />
          </mxGeometry>
        </mxCell>
        <mxCell id="b0L9d9CiQQvxMUGxAGcj-20" value="" style="endArrow=none;html=1;rounded=0;entryX=-0.017;entryY=-0.012;entryDx=0;entryDy=0;entryPerimeter=0;exitX=0.75;exitY=0;exitDx=0;exitDy=0;" edge="1" parent="1" source="b0L9d9CiQQvxMUGxAGcj-22" target="b0L9d9CiQQvxMUGxAGcj-17">
          <mxGeometry width="50" height="50" relative="1" as="geometry">
            <mxPoint x="300" y="370" as="sourcePoint" />
            <mxPoint x="350" y="420" as="targetPoint" />
          </mxGeometry>
        </mxCell>
        <mxCell id="b0L9d9CiQQvxMUGxAGcj-21" value="" style="endArrow=none;html=1;rounded=0;entryX=0;entryY=0.5;entryDx=0;entryDy=0;exitX=0.5;exitY=0;exitDx=0;exitDy=0;" edge="1" parent="1" source="b0L9d9CiQQvxMUGxAGcj-23" target="b0L9d9CiQQvxMUGxAGcj-17">
          <mxGeometry width="50" height="50" relative="1" as="geometry">
            <mxPoint x="450" y="370" as="sourcePoint" />
            <mxPoint x="459" y="321" as="targetPoint" />
          </mxGeometry>
        </mxCell>
        <mxCell id="b0L9d9CiQQvxMUGxAGcj-22" value="Registered" style="rounded=0;whiteSpace=wrap;html=1;fontSize=16;" vertex="1" parent="1">
          <mxGeometry x="120" y="330" width="100" height="50" as="geometry" />
        </mxCell>
        <mxCell id="BoIgVbmaO4bxCrVOedAj-2" style="edgeStyle=orthogonalEdgeStyle;rounded=0;orthogonalLoop=1;jettySize=auto;html=1;entryX=0;entryY=0.5;entryDx=0;entryDy=0;" edge="1" parent="1" source="b0L9d9CiQQvxMUGxAGcj-23" target="BoIgVbmaO4bxCrVOedAj-1">
          <mxGeometry relative="1" as="geometry" />
        </mxCell>
        <mxCell id="b0L9d9CiQQvxMUGxAGcj-23" value="Unregistered" style="rounded=0;whiteSpace=wrap;html=1;fontSize=16;" vertex="1" parent="1">
          <mxGeometry x="325" y="350" width="110" height="50" as="geometry" />
        </mxCell>
        <mxCell id="b0L9d9CiQQvxMUGxAGcj-25" value="" style="triangle;whiteSpace=wrap;html=1;direction=north;" vertex="1" parent="1">
          <mxGeometry x="135" y="460" width="70" height="40" as="geometry" />
        </mxCell>
        <mxCell id="b0L9d9CiQQvxMUGxAGcj-26" value="" style="endArrow=none;html=1;rounded=0;exitX=1;exitY=0.5;exitDx=0;exitDy=0;entryX=0.5;entryY=1;entryDx=0;entryDy=0;" edge="1" parent="1" source="b0L9d9CiQQvxMUGxAGcj-25" target="b0L9d9CiQQvxMUGxAGcj-22">
          <mxGeometry width="50" height="50" relative="1" as="geometry">
            <mxPoint x="190" y="640" as="sourcePoint" />
            <mxPoint x="200" y="400" as="targetPoint" />
          </mxGeometry>
        </mxCell>
        <mxCell id="b0L9d9CiQQvxMUGxAGcj-27" value="" style="endArrow=none;html=1;rounded=0;entryX=0;entryY=0.5;entryDx=0;entryDy=0;exitX=0.5;exitY=0;exitDx=0;exitDy=0;" edge="1" parent="1" source="b0L9d9CiQQvxMUGxAGcj-28" target="b0L9d9CiQQvxMUGxAGcj-25">
          <mxGeometry width="50" height="50" relative="1" as="geometry">
            <mxPoint x="200" y="480" as="sourcePoint" />
            <mxPoint x="300" y="420" as="targetPoint" />
          </mxGeometry>
        </mxCell>
        <mxCell id="b0L9d9CiQQvxMUGxAGcj-28" value="Member" style="rounded=0;whiteSpace=wrap;html=1;fontSize=16;" vertex="1" parent="1">
          <mxGeometry x="125" y="557.5" width="90" height="40" as="geometry" />
        </mxCell>
        <mxCell id="b0L9d9CiQQvxMUGxAGcj-29" value="" style="endArrow=none;html=1;rounded=0;entryX=0;entryY=0.5;entryDx=0;entryDy=0;" edge="1" parent="1" source="b0L9d9CiQQvxMUGxAGcj-31" target="b0L9d9CiQQvxMUGxAGcj-28">
          <mxGeometry width="50" height="50" relative="1" as="geometry">
            <mxPoint x="110" y="540" as="sourcePoint" />
            <mxPoint x="200" y="590" as="targetPoint" />
          </mxGeometry>
        </mxCell>
        <mxCell id="b0L9d9CiQQvxMUGxAGcj-31" value="ExpiryDate" style="ellipse;whiteSpace=wrap;html=1;align=center;" vertex="1" parent="1">
          <mxGeometry x="10" y="560" width="90" height="35" as="geometry" />
        </mxCell>
        <mxCell id="b0L9d9CiQQvxMUGxAGcj-33" value="Id" style="ellipse;whiteSpace=wrap;html=1;align=center;fontStyle=4" vertex="1" parent="1">
          <mxGeometry x="220" y="140" width="90" height="40" as="geometry" />
        </mxCell>
        <mxCell id="b0L9d9CiQQvxMUGxAGcj-34" value="" style="endArrow=none;html=1;rounded=0;exitX=0;exitY=0;exitDx=0;exitDy=0;entryX=1;entryY=1;entryDx=0;entryDy=0;" edge="1" parent="1" source="b0L9d9CiQQvxMUGxAGcj-16" target="b0L9d9CiQQvxMUGxAGcj-33">
          <mxGeometry width="50" height="50" relative="1" as="geometry">
            <mxPoint x="290" y="250" as="sourcePoint" />
            <mxPoint x="225" y="220" as="targetPoint" />
          </mxGeometry>
        </mxCell>
        <mxCell id="b0L9d9CiQQvxMUGxAGcj-37" value="" style="endArrow=none;html=1;rounded=0;exitX=1;exitY=0.5;exitDx=0;exitDy=0;" edge="1" parent="1" source="b0L9d9CiQQvxMUGxAGcj-16" target="b0L9d9CiQQvxMUGxAGcj-38">
          <mxGeometry width="50" height="50" relative="1" as="geometry">
            <mxPoint x="440" y="210" as="sourcePoint" />
            <mxPoint x="480" y="210" as="targetPoint" />
          </mxGeometry>
        </mxCell>
        <mxCell id="b0L9d9CiQQvxMUGxAGcj-38" value="Has" style="shape=rhombus;perimeter=rhombusPerimeter;whiteSpace=wrap;html=1;align=center;" vertex="1" parent="1">
          <mxGeometry x="460" y="180" width="80" height="60" as="geometry" />
        </mxCell>
        <mxCell id="b0L9d9CiQQvxMUGxAGcj-40" style="edgeStyle=orthogonalEdgeStyle;rounded=0;orthogonalLoop=1;jettySize=auto;html=1;entryX=1;entryY=0.5;entryDx=0;entryDy=0;" edge="1" parent="1" source="b0L9d9CiQQvxMUGxAGcj-39" target="b0L9d9CiQQvxMUGxAGcj-38">
          <mxGeometry relative="1" as="geometry" />
        </mxCell>
        <mxCell id="RyCMV6jos1jjqo33M8Nw-4" style="edgeStyle=orthogonalEdgeStyle;rounded=0;orthogonalLoop=1;jettySize=auto;html=1;" edge="1" parent="1" source="b0L9d9CiQQvxMUGxAGcj-39" target="RyCMV6jos1jjqo33M8Nw-3">
          <mxGeometry relative="1" as="geometry" />
        </mxCell>
        <mxCell id="b0L9d9CiQQvxMUGxAGcj-39" value="Credit Card" style="whiteSpace=wrap;html=1;align=center;" vertex="1" parent="1">
          <mxGeometry x="580" y="190" width="100" height="40" as="geometry" />
        </mxCell>
        <mxCell id="b0L9d9CiQQvxMUGxAGcj-41" value="" style="endArrow=none;html=1;rounded=0;exitX=0.5;exitY=0;exitDx=0;exitDy=0;" edge="1" parent="1" source="b0L9d9CiQQvxMUGxAGcj-39" target="b0L9d9CiQQvxMUGxAGcj-42">
          <mxGeometry width="50" height="50" relative="1" as="geometry">
            <mxPoint x="630" y="170" as="sourcePoint" />
            <mxPoint x="630" y="130" as="targetPoint" />
          </mxGeometry>
        </mxCell>
        <mxCell id="b0L9d9CiQQvxMUGxAGcj-42" value="Expiry Date" style="ellipse;whiteSpace=wrap;html=1;align=center;" vertex="1" parent="1">
          <mxGeometry x="580" y="110" width="100" height="40" as="geometry" />
        </mxCell>
        <mxCell id="b0L9d9CiQQvxMUGxAGcj-43" value="" style="endArrow=none;html=1;rounded=0;" edge="1" parent="1" source="b0L9d9CiQQvxMUGxAGcj-39">
          <mxGeometry relative="1" as="geometry">
            <mxPoint x="680" y="209.5" as="sourcePoint" />
            <mxPoint x="730" y="210" as="targetPoint" />
          </mxGeometry>
        </mxCell>
        <mxCell id="b0L9d9CiQQvxMUGxAGcj-44" value="Number" style="ellipse;whiteSpace=wrap;html=1;align=center;fontStyle=4;" vertex="1" parent="1">
          <mxGeometry x="720" y="190" width="100" height="40" as="geometry" />
        </mxCell>
        <mxCell id="b0L9d9CiQQvxMUGxAGcj-45" value="" style="endArrow=none;html=1;rounded=0;entryX=0;entryY=0.5;entryDx=0;entryDy=0;exitX=1;exitY=1;exitDx=0;exitDy=0;" edge="1" parent="1" source="b0L9d9CiQQvxMUGxAGcj-46" target="b0L9d9CiQQvxMUGxAGcj-22">
          <mxGeometry width="50" height="50" relative="1" as="geometry">
            <mxPoint x="80" y="355" as="sourcePoint" />
            <mxPoint x="90" y="330" as="targetPoint" />
          </mxGeometry>
        </mxCell>
        <mxCell id="b0L9d9CiQQvxMUGxAGcj-46" value="Email" style="ellipse;whiteSpace=wrap;html=1;align=center;" vertex="1" parent="1">
          <mxGeometry x="20" y="300" width="70" height="40" as="geometry" />
        </mxCell>
        <mxCell id="b0L9d9CiQQvxMUGxAGcj-47" value="" style="endArrow=none;html=1;rounded=0;entryX=0;entryY=0;entryDx=0;entryDy=0;exitX=1;exitY=1;exitDx=0;exitDy=0;" edge="1" parent="1" source="b0L9d9CiQQvxMUGxAGcj-49" target="b0L9d9CiQQvxMUGxAGcj-22">
          <mxGeometry width="50" height="50" relative="1" as="geometry">
            <mxPoint x="110" y="320" as="sourcePoint" />
            <mxPoint x="370" y="330" as="targetPoint" />
          </mxGeometry>
        </mxCell>
        <mxCell id="b0L9d9CiQQvxMUGxAGcj-49" value="Name" style="ellipse;whiteSpace=wrap;html=1;align=center;" vertex="1" parent="1">
          <mxGeometry x="30" y="250" width="70" height="40" as="geometry" />
        </mxCell>
        <mxCell id="b0L9d9CiQQvxMUGxAGcj-51" value="Address" style="ellipse;whiteSpace=wrap;html=1;align=center;" vertex="1" parent="1">
          <mxGeometry x="10" y="350" width="70" height="40" as="geometry" />
        </mxCell>
        <mxCell id="b0L9d9CiQQvxMUGxAGcj-52" value="" style="endArrow=none;html=1;rounded=0;exitX=1;exitY=0.5;exitDx=0;exitDy=0;entryX=0;entryY=0.75;entryDx=0;entryDy=0;" edge="1" parent="1" source="b0L9d9CiQQvxMUGxAGcj-51" target="b0L9d9CiQQvxMUGxAGcj-22">
          <mxGeometry width="50" height="50" relative="1" as="geometry">
            <mxPoint x="320" y="380" as="sourcePoint" />
            <mxPoint x="370" y="330" as="targetPoint" />
          </mxGeometry>
        </mxCell>
        <mxCell id="b0L9d9CiQQvxMUGxAGcj-53" value="Language" style="ellipse;whiteSpace=wrap;html=1;align=center;" vertex="1" parent="1">
          <mxGeometry x="110" y="240" width="70" height="40" as="geometry" />
        </mxCell>
        <mxCell id="b0L9d9CiQQvxMUGxAGcj-54" value="" style="endArrow=none;html=1;rounded=0;entryX=0.25;entryY=0;entryDx=0;entryDy=0;exitX=0.5;exitY=1;exitDx=0;exitDy=0;" edge="1" parent="1" source="b0L9d9CiQQvxMUGxAGcj-53" target="b0L9d9CiQQvxMUGxAGcj-22">
          <mxGeometry width="50" height="50" relative="1" as="geometry">
            <mxPoint x="220" y="280" as="sourcePoint" />
            <mxPoint x="270" y="309" as="targetPoint" />
          </mxGeometry>
        </mxCell>
        <mxCell id="b0L9d9CiQQvxMUGxAGcj-55" value="" style="endArrow=none;html=1;rounded=0;entryX=0;entryY=1;entryDx=0;entryDy=0;exitX=1;exitY=0.5;exitDx=0;exitDy=0;" edge="1" parent="1" source="b0L9d9CiQQvxMUGxAGcj-56" target="b0L9d9CiQQvxMUGxAGcj-22">
          <mxGeometry width="50" height="50" relative="1" as="geometry">
            <mxPoint x="90" y="410" as="sourcePoint" />
            <mxPoint x="120" y="398" as="targetPoint" />
          </mxGeometry>
        </mxCell>
        <mxCell id="b0L9d9CiQQvxMUGxAGcj-56" value="LoginName" style="ellipse;whiteSpace=wrap;html=1;align=center;" vertex="1" parent="1">
          <mxGeometry x="10" y="400" width="70" height="40" as="geometry" />
        </mxCell>
        <mxCell id="b0L9d9CiQQvxMUGxAGcj-57" value="" style="endArrow=none;html=1;rounded=0;entryX=0.25;entryY=1;entryDx=0;entryDy=0;exitX=0.771;exitY=0;exitDx=0;exitDy=0;exitPerimeter=0;" edge="1" parent="1" source="b0L9d9CiQQvxMUGxAGcj-59" target="b0L9d9CiQQvxMUGxAGcj-22">
          <mxGeometry width="50" height="50" relative="1" as="geometry">
            <mxPoint x="120" y="430" as="sourcePoint" />
            <mxPoint x="160" y="380" as="targetPoint" />
          </mxGeometry>
        </mxCell>
        <mxCell id="b0L9d9CiQQvxMUGxAGcj-59" value="Password" style="ellipse;whiteSpace=wrap;html=1;align=center;" vertex="1" parent="1">
          <mxGeometry x="55" y="440" width="70" height="40" as="geometry" />
        </mxCell>
        <mxCell id="b0L9d9CiQQvxMUGxAGcj-60" value="" style="endArrow=none;html=1;rounded=0;entryX=0.5;entryY=0;entryDx=0;entryDy=0;exitX=0;exitY=1;exitDx=0;exitDy=0;" edge="1" parent="1" source="b0L9d9CiQQvxMUGxAGcj-61" target="b0L9d9CiQQvxMUGxAGcj-22">
          <mxGeometry width="50" height="50" relative="1" as="geometry">
            <mxPoint x="190" y="300" as="sourcePoint" />
            <mxPoint x="200" y="350" as="targetPoint" />
          </mxGeometry>
        </mxCell>
        <mxCell id="b0L9d9CiQQvxMUGxAGcj-61" value="Trips Taken" style="ellipse;whiteSpace=wrap;html=1;align=center;" vertex="1" parent="1">
          <mxGeometry x="190" y="240" width="70" height="40" as="geometry" />
        </mxCell>
        <mxCell id="b0L9d9CiQQvxMUGxAGcj-62" value="" style="endArrow=none;html=1;rounded=0;entryX=0.5;entryY=1;entryDx=0;entryDy=0;exitX=0;exitY=0.5;exitDx=0;exitDy=0;" edge="1" parent="1" source="b0L9d9CiQQvxMUGxAGcj-63" target="b0L9d9CiQQvxMUGxAGcj-22">
          <mxGeometry width="50" height="50" relative="1" as="geometry">
            <mxPoint x="220" y="420" as="sourcePoint" />
            <mxPoint x="210" y="506" as="targetPoint" />
          </mxGeometry>
        </mxCell>
        <mxCell id="b0L9d9CiQQvxMUGxAGcj-63" value="KM Biked" style="ellipse;whiteSpace=wrap;html=1;align=center;" vertex="1" parent="1">
          <mxGeometry x="205" y="400" width="70" height="40" as="geometry" />
        </mxCell>
        <mxCell id="BoIgVbmaO4bxCrVOedAj-1" value="Rents" style="shape=rhombus;perimeter=rhombusPerimeter;whiteSpace=wrap;html=1;align=center;" vertex="1" parent="1">
          <mxGeometry x="470" y="355" width="60" height="40" as="geometry" />
        </mxCell>
        <mxCell id="BoIgVbmaO4bxCrVOedAj-5" style="edgeStyle=orthogonalEdgeStyle;rounded=0;orthogonalLoop=1;jettySize=auto;html=1;entryX=1;entryY=0.5;entryDx=0;entryDy=0;" edge="1" parent="1" source="BoIgVbmaO4bxCrVOedAj-4" target="BoIgVbmaO4bxCrVOedAj-1">
          <mxGeometry relative="1" as="geometry" />
        </mxCell>
        <mxCell id="BoIgVbmaO4bxCrVOedAj-4" value="OneTimeRental" style="whiteSpace=wrap;html=1;align=center;" vertex="1" parent="1">
          <mxGeometry x="580" y="355" width="100" height="40" as="geometry" />
        </mxCell>
        <mxCell id="BoIgVbmaO4bxCrVOedAj-6" value="" style="endArrow=none;html=1;rounded=0;entryX=0.25;entryY=1;entryDx=0;entryDy=0;exitX=0.5;exitY=0;exitDx=0;exitDy=0;" edge="1" parent="1" source="BoIgVbmaO4bxCrVOedAj-7" target="BoIgVbmaO4bxCrVOedAj-4">
          <mxGeometry width="50" height="50" relative="1" as="geometry">
            <mxPoint x="625" y="430" as="sourcePoint" />
            <mxPoint x="480" y="390" as="targetPoint" />
          </mxGeometry>
        </mxCell>
        <mxCell id="BoIgVbmaO4bxCrVOedAj-7" value="&lt;u&gt;RentalID&lt;/u&gt;" style="ellipse;whiteSpace=wrap;html=1;" vertex="1" parent="1">
          <mxGeometry x="520" y="440" width="90" height="50" as="geometry" />
        </mxCell>
        <mxCell id="RyCMV6jos1jjqo33M8Nw-1" value="" style="endArrow=none;html=1;rounded=0;entryX=0.5;entryY=1;entryDx=0;entryDy=0;exitX=0;exitY=0;exitDx=0;exitDy=0;" edge="1" parent="1" source="RyCMV6jos1jjqo33M8Nw-2" target="BoIgVbmaO4bxCrVOedAj-4">
          <mxGeometry width="50" height="50" relative="1" as="geometry">
            <mxPoint x="680" y="440" as="sourcePoint" />
            <mxPoint x="480" y="390" as="targetPoint" />
          </mxGeometry>
        </mxCell>
        <mxCell id="RyCMV6jos1jjqo33M8Nw-2" value="FiveDigitCode" style="ellipse;whiteSpace=wrap;html=1;" vertex="1" parent="1">
          <mxGeometry x="640" y="440" width="90" height="50" as="geometry" />
        </mxCell>
        <mxCell id="RyCMV6jos1jjqo33M8Nw-3" value="Has" style="shape=rhombus;perimeter=rhombusPerimeter;whiteSpace=wrap;html=1;align=center;" vertex="1" parent="1">
          <mxGeometry x="590" y="250" width="80" height="60" as="geometry" />
        </mxCell>
        <mxCell id="RyCMV6jos1jjqo33M8Nw-5" value="" style="endArrow=none;html=1;rounded=0;entryX=0.5;entryY=0;entryDx=0;entryDy=0;exitX=0.5;exitY=1;exitDx=0;exitDy=0;" edge="1" parent="1" source="RyCMV6jos1jjqo33M8Nw-3" target="BoIgVbmaO4bxCrVOedAj-4">
          <mxGeometry width="50" height="50" relative="1" as="geometry">
            <mxPoint x="430" y="440" as="sourcePoint" />
            <mxPoint x="480" y="390" as="targetPoint" />
          </mxGeometry>
        </mxCell>
      </root>
    </mxGraphModel>
  </diagram>
  <diagram id="usA3CLeupiv1izwfe3u9" name="Trips">
    <mxGraphModel dx="1026" dy="692" grid="1" gridSize="10" guides="1" tooltips="1" connect="1" arrows="1" fold="1" page="1" pageScale="1" pageWidth="850" pageHeight="1100" math="0" shadow="0">
      <root>
        <mxCell id="0" />
        <mxCell id="1" parent="0" />
        <mxCell id="r0J-gW4Bp9FpJ145REKd-1" value="Trip" style="whiteSpace=wrap;html=1;align=center;" vertex="1" parent="1">
          <mxGeometry x="370" y="340" width="100" height="40" as="geometry" />
        </mxCell>
        <mxCell id="r0J-gW4Bp9FpJ145REKd-2" value="" style="endArrow=none;html=1;rounded=0;entryX=0;entryY=1;entryDx=0;entryDy=0;exitX=0.5;exitY=1;exitDx=0;exitDy=0;" edge="1" parent="1" source="r0J-gW4Bp9FpJ145REKd-3" target="r0J-gW4Bp9FpJ145REKd-1">
          <mxGeometry width="50" height="50" relative="1" as="geometry">
            <mxPoint x="320" y="290" as="sourcePoint" />
            <mxPoint x="340" y="290" as="targetPoint" />
          </mxGeometry>
        </mxCell>
        <mxCell id="r0J-gW4Bp9FpJ145REKd-3" value="&lt;u&gt;TripID&lt;/u&gt;" style="ellipse;whiteSpace=wrap;html=1;" vertex="1" parent="1">
          <mxGeometry x="290" y="430" width="70" height="50" as="geometry" />
        </mxCell>
        <mxCell id="r0J-gW4Bp9FpJ145REKd-4" value="" style="endArrow=none;html=1;rounded=0;exitX=0.5;exitY=1;exitDx=0;exitDy=0;" edge="1" parent="1" source="r0J-gW4Bp9FpJ145REKd-1" target="r0J-gW4Bp9FpJ145REKd-5">
          <mxGeometry width="50" height="50" relative="1" as="geometry">
            <mxPoint x="400" y="340" as="sourcePoint" />
            <mxPoint x="400" y="280" as="targetPoint" />
          </mxGeometry>
        </mxCell>
        <mxCell id="r0J-gW4Bp9FpJ145REKd-5" value="StartTime" style="ellipse;whiteSpace=wrap;html=1;" vertex="1" parent="1">
          <mxGeometry x="385" y="440" width="70" height="40" as="geometry" />
        </mxCell>
        <mxCell id="r0J-gW4Bp9FpJ145REKd-6" value="" style="endArrow=none;html=1;rounded=0;exitX=0.94;exitY=1.025;exitDx=0;exitDy=0;exitPerimeter=0;" edge="1" parent="1" source="r0J-gW4Bp9FpJ145REKd-1" target="r0J-gW4Bp9FpJ145REKd-7">
          <mxGeometry width="50" height="50" relative="1" as="geometry">
            <mxPoint x="440" y="325" as="sourcePoint" />
            <mxPoint x="460" y="290" as="targetPoint" />
          </mxGeometry>
        </mxCell>
        <mxCell id="r0J-gW4Bp9FpJ145REKd-7" value="ReturnTime" style="ellipse;whiteSpace=wrap;html=1;" vertex="1" parent="1">
          <mxGeometry x="470" y="437.5" width="80" height="45" as="geometry" />
        </mxCell>
      </root>
    </mxGraphModel>
  </diagram>
</mxfile>
